<?xml version="1.0" encoding="utf-8"?>
<!-- Generator: Adobe Illustrator 24.1.2, SVG Export Plug-In . SVG Version: 6.00 Build 0)  -->
<svg version="1.1" id="Layer_1" xmlns="http://www.w3.org/2000/svg" xmlns:xlink="http://www.w3.org/1999/xlink" x="0px" y="0px"
	 viewBox="0 0 138.98 139.66" style="enable-background:new 0 0 138.98 139.66;" xml:space="preserve">
<style type="text/css">
	.st0{fill:#00E8CC;}
	.st1{fill:none;stroke:#A533AC;stroke-width:2;stroke-miterlimit:10;}
	.st2{fill:none;stroke:#003C35;stroke-miterlimit:10;}
</style>
<g>
	<circle class="st0" cx="69.55" cy="70.23" r="57.81"/>
	<g>
		<path class="st1" d="M77.86,53.39c-0.94-2.28-2.26-4.26-3.94-5.95c-1.69-1.69-3.69-3.02-6.01-4.01c-2.32-0.98-4.89-1.47-7.71-1.47
			c-2.75,0-5.34,0.51-7.77,1.53c-2.43,1.02-4.53,2.4-6.3,4.12c-1.77,1.73-3.16,3.75-4.18,6.06c-1.02,2.32-1.53,4.77-1.53,7.36
			c0,2.59,0.47,5.03,1.41,7.3c0.94,2.28,2.26,4.24,3.94,5.89c1.69,1.65,3.69,2.97,6.01,3.95c2.31,0.98,4.85,1.47,7.6,1.47
			c2.83,0,5.44-0.51,7.83-1.53c2.4-1.02,4.49-2.37,6.3-4.06c1.81-1.69,3.22-3.69,4.24-6.01c1.02-2.32,1.53-4.77,1.53-7.36
			C79.27,58.1,78.8,55.67,77.86,53.39z"/>
		<path class="st1" d="M97.29,53.39c-0.94-2.28-2.26-4.26-3.94-5.95c-1.69-1.69-3.69-3.02-6.01-4.01c-2.32-0.98-4.89-1.47-7.71-1.47
			c-2.75,0-5.34,0.51-7.77,1.53c-2.43,1.02-4.53,2.4-6.3,4.12c-1.77,1.73-3.16,3.75-4.18,6.06c-1.02,2.32-1.53,4.77-1.53,7.36
			c0,2.59,0.47,5.03,1.41,7.3c0.94,2.28,2.26,4.24,3.94,5.89c1.69,1.65,3.69,2.97,6.01,3.95c2.31,0.98,4.85,1.47,7.6,1.47
			c2.83,0,5.44-0.51,7.83-1.53c2.4-1.02,4.49-2.37,6.3-4.06c1.81-1.69,3.22-3.69,4.24-6.01c1.02-2.32,1.53-4.77,1.53-7.36
			C98.7,58.1,98.23,55.67,97.29,53.39z"/>
		<path class="st1" d="M77.86,72.24c-0.94-2.28-2.26-4.26-3.94-5.95c-1.69-1.69-3.69-3.02-6.01-4.01c-2.32-0.98-4.89-1.47-7.71-1.47
			c-2.75,0-5.34,0.51-7.77,1.53c-2.43,1.02-4.53,2.4-6.3,4.12c-1.77,1.73-3.16,3.75-4.18,6.06c-1.02,2.32-1.53,4.77-1.53,7.36
			c0,2.59,0.47,5.03,1.41,7.3c0.94,2.28,2.26,4.24,3.94,5.89c1.69,1.65,3.69,2.97,6.01,3.95c2.31,0.98,4.85,1.47,7.6,1.47
			c2.83,0,5.44-0.51,7.83-1.53c2.4-1.02,4.49-2.37,6.3-4.06c1.81-1.69,3.22-3.69,4.24-6.01c1.02-2.32,1.53-4.77,1.53-7.36
			C79.27,76.95,78.8,74.51,77.86,72.24z"/>
		<path class="st1" d="M97.29,72.24c-0.94-2.28-2.26-4.26-3.94-5.95c-1.69-1.69-3.69-3.02-6.01-4.01c-2.32-0.98-4.89-1.47-7.71-1.47
			c-2.75,0-5.34,0.51-7.77,1.53c-2.43,1.02-4.53,2.4-6.3,4.12c-1.77,1.73-3.16,3.75-4.18,6.06c-1.02,2.32-1.53,4.77-1.53,7.36
			c0,2.59,0.47,5.03,1.41,7.3c0.94,2.28,2.26,4.24,3.94,5.89c1.69,1.65,3.69,2.97,6.01,3.95c2.31,0.98,4.85,1.47,7.6,1.47
			c2.83,0,5.44-0.51,7.83-1.53c2.4-1.02,4.49-2.37,6.3-4.06c1.81-1.69,3.22-3.69,4.24-6.01c1.02-2.32,1.53-4.77,1.53-7.36
			C98.7,76.95,98.23,74.51,97.29,72.24z"/>
	</g>
	<circle class="st2" cx="69.55" cy="70.23" r="68.43"/>
</g>
</svg>
