<?xml version="1.0" encoding="utf-8"?>
<!-- Generator: Adobe Illustrator 24.1.2, SVG Export Plug-In . SVG Version: 6.00 Build 0)  -->
<svg version="1.1" id="Layer_1" xmlns="http://www.w3.org/2000/svg" xmlns:xlink="http://www.w3.org/1999/xlink" x="0px" y="0px"
	 viewBox="0 0 138.98 139.66" style="enable-background:new 0 0 138.98 139.66;" xml:space="preserve">
<style type="text/css">
	.st0{fill:#D880D8;}
	.st1{fill:none;stroke:#00E8CC;stroke-miterlimit:10;}
	.st2{fill:#A533AC;}
	.st3{fill:#00E8CC;}
</style>
<g>
	<g>
		<circle class="st0" cx="69.57" cy="70.23" r="57.81"/>
		<circle class="st1" cx="69.57" cy="70.23" r="68.43"/>
	</g>
	<g>
		<path id="Trazado_43_2_" class="st2" d="M76.72,98.42c0,1.41,0.28,2.55,0.84,3.41c0.5,0.8,1.16,1.48,1.93,2.01
			c0.65,0.44,1.36,0.78,2.11,1.01c0.48,0.15,0.96,0.26,1.46,0.34c0.24,0.04,0.45,0.17,0.61,0.34c0.12,0.14,0.17,0.32,0.13,0.5
			c-0.04,0.19-0.14,0.35-0.29,0.48c-0.19,0.15-0.42,0.23-0.66,0.21H56.3c-0.24,0.01-0.47-0.06-0.66-0.21
			c-0.15-0.12-0.25-0.29-0.29-0.48c-0.04-0.18,0.01-0.36,0.13-0.5c0.16-0.18,0.37-0.3,0.61-0.34c0.49-0.08,0.98-0.2,1.45-0.34
			c0.75-0.22,1.47-0.56,2.12-1.01c0.78-0.53,1.43-1.22,1.93-2.01c0.56-0.86,0.85-2,0.85-3.41V69.01c0.04-0.4-0.24-0.77-0.64-0.85
			c-0.26-0.04-0.51-0.09-0.77-0.16c-0.44-0.11-0.94-0.23-1.51-0.37c-0.56-0.14-1.08-0.26-1.56-0.37c-0.48-0.11-0.77-0.18-0.87-0.21
			c-0.46-0.11-0.7-0.34-0.71-0.71s0.24-0.63,0.77-0.77c1.51-0.36,3-0.79,4.47-1.3c1.6-0.55,3.22-1.16,4.84-1.85
			c1.62-0.69,3.19-1.43,4.71-2.22c1.4-0.73,2.76-1.53,4.07-2.41c0.28-0.2,0.63-0.3,0.98-0.26c0.34,0.04,0.5,0.3,0.5,0.79
			L76.72,98.42z"/>
		<path id="Trazado_44_2_" class="st3" d="M77.14,38.86c-0.41-1-1.01-1.91-1.77-2.67c-0.77-0.77-1.69-1.38-2.7-1.8
			c-1.1-0.45-2.28-0.68-3.46-0.66c-2.36-0.01-4.62,0.9-6.32,2.54c-0.8,0.78-1.43,1.7-1.88,2.72c-0.46,1.04-0.69,2.17-0.69,3.31
			c-0.01,1.12,0.21,2.24,0.63,3.28c0.4,0.99,1.01,1.89,1.77,2.64c1.64,1.58,3.83,2.46,6.11,2.43c1.21,0.01,2.4-0.22,3.52-0.69
			c1.04-0.44,2-1.05,2.83-1.82c1.66-1.55,2.6-3.73,2.59-6C77.78,41.02,77.57,39.91,77.14,38.86z"/>
	</g>
</g>
</svg>
