<?xml version="1.0" encoding="utf-8"?>
<!-- Generator: Adobe Illustrator 24.1.2, SVG Export Plug-In . SVG Version: 6.00 Build 0)  -->
<svg version="1.1" id="Layer_1" xmlns="http://www.w3.org/2000/svg" xmlns:xlink="http://www.w3.org/1999/xlink" x="0px" y="0px"
	 viewBox="0 0 139 139.7" style="enable-background:new 0 0 139 139.7;" xml:space="preserve">
<style type="text/css">
	.st0{fill:#D880D8;}
	.st1{fill:#003C35;}
	.st2{fill:none;stroke:#00E8CC;stroke-miterlimit:10;}
</style>
<g>
	<circle class="st0" cx="69.4" cy="69.9" r="57.8"/>
	<g>
		<path class="st1" d="M51.5,27.9c1,0,1.9,0.3,2.7,0.9s1.5,1.3,1.9,2.3c0.5,1,0.7,2,0.6,2.9c-0.1,1-0.4,1.8-1,2.6
			c-0.6,0.8-1.4,1.5-2.5,2l-3.5,1.7l-4.9-10l3.5-1.7C49.5,28.1,50.5,27.9,51.5,27.9z M54.5,34.9c0.3-0.9,0.2-1.8-0.3-2.8
			c-0.5-1-1.2-1.7-2.1-2s-1.8-0.2-2.9,0.3L47.8,31l3.2,6.6l1.4-0.7C53.5,36.5,54.2,35.8,54.5,34.9z"/>
		<path class="st1" d="M59.3,24.7L62,35.5l-2.2,0.5l-2.7-10.8L59.3,24.7z"/>
		<path class="st1" d="M65.4,34.7c-0.6-0.2-1.1-0.6-1.5-1.1c-0.4-0.5-0.6-1.1-0.7-1.7l2.4-0.1c0.1,0.5,0.2,0.8,0.5,1.1
			c0.3,0.2,0.7,0.4,1.2,0.3c0.5,0,0.9-0.2,1.2-0.4s0.4-0.6,0.4-1c0-0.3-0.1-0.6-0.3-0.8s-0.5-0.4-0.8-0.5c-0.3-0.1-0.7-0.2-1.3-0.3
			c-0.7-0.2-1.3-0.3-1.8-0.5c-0.5-0.2-0.9-0.5-1.2-0.9c-0.3-0.4-0.5-1-0.6-1.7c0-0.7,0.1-1.2,0.4-1.7c0.3-0.5,0.7-0.9,1.3-1.2
			c0.6-0.3,1.3-0.5,2-0.5c1.1-0.1,2.1,0.2,2.8,0.7s1.2,1.3,1.3,2.3l-2.5,0.1c0-0.4-0.2-0.7-0.5-0.9s-0.7-0.3-1.2-0.3
			c-0.4,0-0.8,0.2-1,0.4c-0.2,0.2-0.4,0.6-0.3,1c0,0.3,0.1,0.5,0.3,0.7c0.2,0.2,0.5,0.3,0.8,0.4c0.3,0.1,0.7,0.2,1.3,0.4
			c0.7,0.2,1.3,0.4,1.8,0.5c0.5,0.2,0.9,0.5,1.2,0.9c0.4,0.4,0.5,1,0.6,1.6c0,0.6-0.1,1.2-0.4,1.7c-0.3,0.5-0.7,1-1.3,1.3
			c-0.6,0.3-1.3,0.5-2.1,0.6C66.7,35,66,34.9,65.4,34.7z"/>
		<path class="st1" d="M76.5,26L76,28.7l3.7,0.7l-0.3,1.7l-3.7-0.7l-0.5,2.9l4.2,0.8L79,35.9l-6.4-1.2l2-11L81,25l-0.3,1.8L76.5,26z
			"/>
		<path class="st1" d="M88.9,40.3l-2-1l-1.2-9.1l-3.3,6.9l-2-1l4.8-10l2,1l1.2,9.1l3.3-6.9l2,1L88.9,40.3z M88.6,25.1
			c0.5-0.2,0.9-0.1,1.4,0.1c0.2,0.1,0.4,0.2,0.5,0.3c0.1,0.1,0.3,0.3,0.4,0.5c0.2,0.3,0.4,0.5,0.6,0.6c0.4,0.2,0.7,0.1,0.9-0.3
			l1.1,0.5c-0.4,0.6-0.8,1-1.3,1.1s-0.9,0.1-1.4-0.1c-0.2-0.1-0.4-0.2-0.5-0.3S90,27.2,89.9,27c-0.2-0.3-0.4-0.5-0.6-0.6
			c-0.4-0.2-0.7-0.1-0.9,0.3l-1.1-0.5C87.7,25.6,88.1,25.2,88.6,25.1z"/>
		<path class="st1" d="M92.2,42.2c-0.3-1-0.3-1.9-0.1-2.9c0.2-1,0.7-1.9,1.5-2.6c0.8-0.8,1.6-1.3,2.6-1.6c1-0.3,1.9-0.3,2.9,0
			s1.8,0.7,2.6,1.5c0.8,0.7,1.3,1.6,1.6,2.5c0.3,1,0.3,1.9,0.1,2.9s-0.7,1.9-1.5,2.6c-0.8,0.8-1.6,1.3-2.6,1.6c-1,0.3-1.9,0.3-2.9,0
			c-1-0.3-1.8-0.7-2.6-1.5C93,44,92.5,43.1,92.2,42.2z M96.7,44.2c0.6,0.1,1.2,0.1,1.8-0.1c0.6-0.2,1.2-0.6,1.7-1.1
			c0.5-0.5,0.9-1.1,1-1.7c0.2-0.6,0.2-1.2,0-1.8c-0.2-0.6-0.5-1.1-1-1.6c-0.5-0.5-1-0.8-1.6-0.9c-0.6-0.1-1.2-0.1-1.8,0.1
			c-0.6,0.2-1.1,0.6-1.7,1.1c-0.5,0.5-0.9,1.1-1.1,1.7c-0.2,0.6-0.2,1.2,0,1.8c0.2,0.6,0.5,1.1,1,1.6C95.6,43.7,96.1,44,96.7,44.2z"
			/>
		<path class="st1" d="M111.3,50.1l-6.4,2.6c-0.7,0.3-1.2,0.7-1.4,1.2c-0.2,0.5-0.2,1.1,0.1,1.8c0.3,0.7,0.7,1.1,1.2,1.3
			c0.5,0.2,1.1,0.2,1.8-0.1l6.4-2.6l0.9,2.1l-6.4,2.6c-0.9,0.4-1.7,0.5-2.5,0.4c-0.8-0.1-1.4-0.4-2-1c-0.6-0.5-1-1.1-1.3-1.9
			c-0.3-0.8-0.5-1.5-0.4-2.3c0-0.8,0.3-1.4,0.8-2c0.5-0.6,1.1-1.1,2-1.5l6.4-2.6L111.3,50.1z"/>
		<path class="st1" d="M104.6,68.7l3.5-2.8l-3.9-1.8l-0.3-2.5l5.9,2.9l5.1-4.1l0.3,2.6l-3.5,2.8l3.9,1.8l0.3,2.5l-5.9-2.9l-5.2,4.1
			L104.6,68.7z"/>
		<path class="st1" d="M114.4,81l-6.6-2c-0.7-0.2-1.3-0.2-1.8,0.1c-0.5,0.3-0.8,0.7-1,1.4c-0.2,0.7-0.2,1.3,0.1,1.8
			c0.3,0.5,0.8,0.8,1.5,1.1l6.6,2l-0.6,2.2l-6.6-2c-0.9-0.3-1.6-0.7-2.1-1.3c-0.5-0.6-0.8-1.2-0.9-2c-0.1-0.8-0.1-1.5,0.2-2.3
			c0.2-0.8,0.6-1.5,1.1-2c0.5-0.6,1.1-0.9,1.9-1.1c0.7-0.2,1.6-0.2,2.5,0.1l6.6,2L114.4,81z"/>
		<path class="st1" d="M109.6,92.9l-9.8-5.3l1.1-2l9.8,5.3L109.6,92.9z"/>
		<path class="st1" d="M97,101.5l-1.3-1.3l4.7-4.8l1.3,1.3L97,101.5z"/>
		<path class="st1" d="M85.9,112.5c-1-0.1-1.9-0.4-2.7-0.9c-0.8-0.6-1.4-1.4-1.9-2.4c-0.5-1-0.6-2-0.5-3c0.1-1,0.5-1.8,1.1-2.6
			c0.6-0.8,1.5-1.4,2.5-1.9l3.5-1.6l4.6,10.2l-3.5,1.6C88,112.3,86.9,112.5,85.9,112.5z M83.2,105.4c-0.3,0.8-0.2,1.8,0.2,2.9
			c0.5,1.1,1.1,1.8,2,2.1s1.8,0.3,2.9-0.2l1.4-0.6l-3-6.7l-1.4,0.6C84.2,103.9,83.6,104.5,83.2,105.4z"/>
		<path class="st1" d="M78.1,115.4l-2.3-10.9l2.2-0.5l2.3,10.9L78.1,115.4z"/>
		<path class="st1" d="M72.3,105.3c0.6,0.3,1.1,0.6,1.5,1.1s0.6,1.1,0.6,1.8l-2.4,0.1c0-0.5-0.2-0.8-0.5-1.1
			c-0.3-0.3-0.7-0.4-1.2-0.4c-0.5,0-0.9,0.1-1.2,0.4c-0.3,0.3-0.4,0.6-0.4,1c0,0.3,0.1,0.6,0.3,0.8c0.2,0.2,0.5,0.4,0.8,0.5
			s0.7,0.2,1.3,0.4c0.7,0.2,1.3,0.4,1.8,0.6c0.5,0.2,0.9,0.5,1.2,0.9c0.3,0.4,0.5,1,0.5,1.7c0,0.7-0.1,1.2-0.5,1.7
			c-0.3,0.5-0.8,0.9-1.4,1.2c-0.6,0.3-1.3,0.4-2,0.4c-1.1,0-2.1-0.2-2.8-0.8s-1.1-1.3-1.2-2.3l2.5-0.1c0,0.4,0.2,0.7,0.5,0.9
			s0.7,0.4,1.2,0.3c0.4,0,0.8-0.1,1-0.4c0.3-0.2,0.4-0.6,0.4-1c0-0.3-0.1-0.5-0.3-0.7c-0.2-0.2-0.5-0.3-0.7-0.5
			c-0.3-0.1-0.7-0.2-1.2-0.4c-0.7-0.2-1.3-0.4-1.8-0.6c-0.5-0.2-0.9-0.5-1.2-0.9s-0.5-1-0.5-1.7c0-0.6,0.1-1.2,0.4-1.7
			c0.3-0.5,0.7-0.9,1.3-1.3c0.6-0.3,1.3-0.5,2.1-0.5C71,104.9,71.7,105,72.3,105.3z"/>
		<path class="st1" d="M60.9,113.6l0.6-2.7l-3.7-0.8l0.4-1.7l3.7,0.8l0.6-2.9l-4.1-0.9l0.4-1.8l6.3,1.4l-2.4,10.9l-6.3-1.4l0.4-1.8
			L60.9,113.6z"/>
		<path class="st1" d="M49,98.9l2,1l1,9.1l3.5-6.8l2,1l-5.2,9.9l-2-1l-0.9-9.1l-3.5,6.8l-2-1L49,98.9z M48.9,114.1
			c-0.5,0.1-0.9,0.1-1.4-0.1c-0.2-0.1-0.4-0.2-0.5-0.4c-0.1-0.1-0.2-0.3-0.4-0.5c-0.2-0.3-0.4-0.5-0.6-0.6c-0.3-0.2-0.7-0.1-0.9,0.3
			l-1.1-0.6c0.4-0.6,0.8-0.9,1.3-1.1c0.5-0.1,0.9-0.1,1.4,0.1c0.2,0.1,0.4,0.2,0.5,0.4c0.1,0.1,0.2,0.3,0.4,0.5
			c0.2,0.3,0.4,0.5,0.6,0.7c0.3,0.2,0.7,0.1,0.9-0.3l1,0.5C49.8,113.6,49.4,114,48.9,114.1z"/>
		<path class="st1" d="M45.8,96.9c0.3,1,0.3,1.9,0,2.9c-0.3,1-0.8,1.8-1.6,2.6c-0.8,0.8-1.7,1.3-2.6,1.5c-1,0.2-1.9,0.2-2.9-0.1
			c-1-0.3-1.8-0.8-2.5-1.5c-0.7-0.8-1.2-1.6-1.5-2.6s-0.2-1.9,0-2.9c0.3-1,0.8-1.8,1.6-2.6c0.8-0.8,1.7-1.3,2.6-1.5
			c1-0.2,1.9-0.2,2.9,0.1c1,0.3,1.8,0.8,2.5,1.5C45,95.1,45.5,95.9,45.8,96.9z M41.3,94.8c-0.6-0.2-1.2-0.1-1.8,0
			c-0.6,0.2-1.2,0.5-1.7,1.1s-0.9,1.1-1.1,1.7c-0.2,0.6-0.2,1.2-0.1,1.8c0.1,0.6,0.4,1.1,0.9,1.6c0.5,0.5,1,0.8,1.6,1
			c0.6,0.2,1.2,0.2,1.8,0c0.6-0.2,1.2-0.5,1.7-1.1s0.9-1.1,1.1-1.7c0.2-0.6,0.2-1.2,0.1-1.8c-0.1-0.6-0.4-1.1-0.9-1.6
			C42.4,95.2,41.9,94.9,41.3,94.8z"/>
		<path class="st1" d="M26.9,88.3l6.4-2.4c0.7-0.3,1.2-0.7,1.4-1.2s0.2-1.1,0-1.8c-0.3-0.7-0.6-1.1-1.2-1.4s-1.1-0.2-1.8,0.1
			l-6.4,2.4L24.5,82l6.4-2.4c0.9-0.3,1.7-0.4,2.5-0.3c0.8,0.2,1.4,0.5,2,1c0.5,0.5,1,1.2,1.3,2c0.3,0.8,0.4,1.5,0.3,2.3
			c-0.1,0.7-0.3,1.4-0.8,2c-0.5,0.6-1.2,1.1-2,1.4l-6.4,2.4L26.9,88.3z"/>
		<path class="st1" d="M34.2,70.1l-3.6,2.7l3.9,1.9l0.2,2.5l-5.8-3.1L23.6,78l-0.2-2.6l3.6-2.7l-3.9-1.9l-0.2-2.5l5.8,3.1l5.3-3.9
			L34.2,70.1z"/>
		<path class="st1" d="M24.8,57.4l6.5,2.2c0.7,0.2,1.3,0.2,1.8,0c0.5-0.2,0.9-0.7,1.1-1.4c0.2-0.7,0.2-1.3,0-1.8
			c-0.3-0.5-0.7-0.9-1.5-1.1l-6.5-2.2l0.7-2.1l6.5,2.2c0.9,0.3,1.6,0.7,2.1,1.3c0.5,0.6,0.8,1.3,0.9,2c0.1,0.8,0,1.5-0.3,2.3
			c-0.3,0.8-0.7,1.4-1.2,2c-0.5,0.5-1.2,0.9-1.9,1.1c-0.7,0.2-1.6,0.1-2.5-0.2l-6.5-2.2L24.8,57.4z"/>
		<path class="st1" d="M30,45.7l9.6,5.6l-1.1,1.9l-9.6-5.6L30,45.7z"/>
		<path class="st1" d="M39.7,40.3l1.4,1.2l-4.4,5.1l-1.4-1.2L39.7,40.3z"/>
	</g>
	<circle class="st2" cx="69.4" cy="69.9" r="68.4"/>
</g>
</svg>
