<?xml version="1.0" encoding="utf-8"?>
<!-- Generator: Adobe Illustrator 24.1.2, SVG Export Plug-In . SVG Version: 6.00 Build 0)  -->
<svg version="1.1" id="Layer_1" xmlns="http://www.w3.org/2000/svg" xmlns:xlink="http://www.w3.org/1999/xlink" x="0px" y="0px"
	 viewBox="0 0 139 139.7" style="enable-background:new 0 0 139 139.7;" xml:space="preserve">
<style type="text/css">
	.st0{fill:#003C35;}
	.st1{fill:#D880D8;}
	.st2{fill:none;stroke:#00E8CC;stroke-miterlimit:10;}
</style>
<g>
	<circle class="st0" cx="69.5" cy="69.5" r="57.8"/>
	<g>
		<g>
			<path class="st1" d="M52.8,33.8l-3.4,1.8l0.3,1.9l-1.8,1l-1.5-10.3l2-1.1l7.7,7l-1.8,1L52.8,33.8z M51.5,32.7l-3.2-2.9l0.7,4.3
				L51.5,32.7z"/>
			<path class="st1" d="M61.7,32.8l-3-3.2l-0.9,0.2l0.9,3.7l-1.9,0.5l-2.4-9.5l3.6-0.9c0.7-0.2,1.4-0.2,2-0.1s1.1,0.4,1.4,0.7
				c0.4,0.4,0.6,0.8,0.8,1.4c0.2,0.6,0.1,1.2-0.1,1.8c-0.2,0.6-0.7,1.1-1.4,1.4l3.2,3.3L61.7,32.8z M57.4,28.5l1.6-0.4
				c0.5-0.1,0.9-0.4,1.1-0.7c0.2-0.3,0.2-0.7,0.1-1.1c-0.1-0.4-0.3-0.7-0.6-0.9s-0.7-0.2-1.2-0.1l-1.6,0.4L57.4,28.5z"/>
			<path class="st1" d="M71.4,22.2l0.1,1.6l-2.6,0.1l0.3,8.2l-2,0.1l-0.3-8.2L64.3,24l-0.1-1.6L71.4,22.2z"/>
			<path class="st1" d="M75.9,24.3l-0.4,2.4l3.3,0.5l-0.2,1.5l-3.3-0.5l-0.4,2.6l3.7,0.6L78.3,33l-5.6-0.9l1.5-9.7l5.6,0.9l-0.3,1.6
				L75.9,24.3z"/>
			<path class="st1" d="M92.1,28.7c0.5,0.7,0.8,1.5,0.9,2.3c0.1,0.9-0.1,1.7-0.6,2.6c-0.4,0.9-1,1.5-1.7,2c-0.7,0.5-1.5,0.7-2.4,0.7
				c-0.9,0-1.8-0.2-2.7-0.7l-3.1-1.5l4.4-8.7l3.1,1.5C90.9,27.4,91.6,27.9,92.1,28.7z M88.8,34.4c0.8-0.3,1.4-0.8,1.8-1.7
				c0.5-0.9,0.6-1.7,0.3-2.5c-0.2-0.8-0.8-1.4-1.7-1.8l-1.2-0.6L85,33.5l1.2,0.6C87.2,34.6,88,34.7,88.8,34.4z"/>
			<path class="st1" d="M97.6,33.5L96,35.4l2.6,2.1l-1,1.2l-2.6-2.1l-1.6,2l2.9,2.3l-1,1.2l-4.4-3.6l6.2-7.6l4.4,3.6l-1,1.2
				L97.6,33.5z"/>
			<path class="st1" d="M109.5,45.4c0.1,0.9,0,1.7-0.4,2.5c-0.4,0.8-1,1.4-1.8,2c-0.8,0.5-1.6,0.8-2.5,0.9c-0.8,0.1-1.7-0.1-2.4-0.6
				s-1.4-1.1-2-1.9l-1.9-2.8l8.1-5.4l1.9,2.8C109,43.6,109.4,44.5,109.5,45.4z M103.7,48.7c0.8,0.2,1.6,0,2.4-0.6s1.4-1.2,1.5-2
				c0.2-0.8,0-1.6-0.6-2.5l-0.8-1.2l-5.4,3.6l0.8,1.2C102.2,48.1,102.9,48.6,103.7,48.7z"/>
			<path class="st1" d="M113.2,51.5l-9,3.9l-0.8-1.8l9-3.9L113.2,51.5z"/>
			<path class="st1" d="M105.5,58.2c0.1-0.6,0.3-1.1,0.6-1.5s0.8-0.7,1.4-0.9l0.5,2c-0.4,0.1-0.7,0.3-0.8,0.7
				c-0.2,0.3-0.2,0.7-0.1,1.1c0.1,0.4,0.3,0.8,0.6,1c0.3,0.2,0.6,0.3,0.9,0.2c0.3-0.1,0.5-0.2,0.6-0.4c0.1-0.2,0.2-0.5,0.3-0.8
				c0-0.3,0.1-0.7,0.1-1.2c0-0.7,0.1-1.2,0.1-1.6s0.3-0.8,0.5-1.2c0.3-0.4,0.7-0.6,1.3-0.8c0.6-0.1,1.1-0.1,1.6,0s0.9,0.5,1.3,0.9
				s0.6,1,0.8,1.6c0.3,1,0.2,1.8-0.1,2.6s-0.9,1.2-1.7,1.5l-0.5-2.1c0.3-0.1,0.6-0.3,0.7-0.6s0.2-0.7,0.1-1.1
				c-0.1-0.4-0.3-0.6-0.5-0.8s-0.6-0.2-0.9-0.1c-0.3,0.1-0.4,0.2-0.6,0.4c-0.1,0.2-0.2,0.5-0.2,0.7c0,0.3-0.1,0.7-0.1,1.1
				c0,0.7-0.1,1.2-0.2,1.6c-0.1,0.4-0.3,0.8-0.6,1.2c-0.3,0.4-0.7,0.6-1.3,0.8c-0.5,0.1-1,0.1-1.5,0s-0.9-0.4-1.3-0.9
				c-0.4-0.4-0.7-1-0.9-1.7C105.5,59.4,105.4,58.8,105.5,58.2z"/>
			<path class="st1" d="M114.4,64.6c0.8,0.4,1.4,1,1.8,1.7c0.4,0.7,0.7,1.6,0.7,2.5c0,1.1-0.2,2.1-0.8,2.9s-1.3,1.4-2.3,1.8l0-2.3
				c0.5-0.2,0.8-0.6,1-1s0.3-0.9,0.3-1.4c0-0.6-0.2-1.1-0.4-1.5c-0.3-0.4-0.7-0.8-1.1-1c-0.5-0.2-1.1-0.4-1.7-0.3
				c-0.6,0-1.2,0.1-1.7,0.4c-0.5,0.3-0.9,0.6-1.1,1.1c-0.3,0.4-0.4,1-0.4,1.5c0,0.5,0.1,1,0.4,1.4c0.2,0.4,0.6,0.7,1.1,0.9l0,2.3
				c-1-0.3-1.8-0.9-2.4-1.7s-0.9-1.8-0.9-2.9c0-0.9,0.2-1.8,0.6-2.5c0.4-0.8,1-1.4,1.7-1.8c0.8-0.4,1.6-0.7,2.6-0.7
				S113.6,64.1,114.4,64.6z"/>
			<path class="st1" d="M106.9,76.8c0.6-0.6,1.3-1.1,2.2-1.3c0.8-0.2,1.7-0.2,2.7,0c0.9,0.2,1.7,0.7,2.3,1.3c0.6,0.6,1,1.4,1.3,2.2
				c0.2,0.8,0.2,1.7,0,2.6c-0.2,0.9-0.7,1.7-1.3,2.3c-0.6,0.6-1.3,1.1-2.2,1.3c-0.8,0.2-1.7,0.2-2.7,0c-0.9-0.2-1.7-0.7-2.3-1.3
				s-1-1.4-1.3-2.2c-0.2-0.8-0.2-1.7,0-2.6C105.9,78.1,106.3,77.4,106.9,76.8z M107.3,81.1c0.1,0.5,0.4,0.9,0.8,1.3s0.9,0.6,1.6,0.8
				c0.6,0.2,1.2,0.2,1.8,0.1c0.5-0.1,1-0.4,1.4-0.7c0.4-0.4,0.6-0.8,0.8-1.4c0.2-0.6,0.2-1.1,0-1.6c-0.1-0.5-0.4-0.9-0.8-1.3
				c-0.4-0.4-0.9-0.6-1.6-0.8c-0.6-0.2-1.2-0.2-1.8-0.1c-0.5,0.1-1,0.4-1.4,0.7s-0.6,0.8-0.8,1.4S107.2,80.6,107.3,81.1z"/>
			<path class="st1" d="M103.4,86.1c0.5-0.4,1-0.6,1.5-0.6c0.5-0.1,1.1,0,1.6,0.3l-1,1.8c-0.4-0.2-0.7-0.2-1-0.1s-0.6,0.4-0.8,0.8
				c-0.2,0.4-0.3,0.8-0.2,1.1s0.3,0.6,0.6,0.8c0.3,0.1,0.5,0.2,0.8,0.1c0.3-0.1,0.5-0.2,0.7-0.4c0.2-0.2,0.5-0.4,0.8-0.8
				c0.5-0.5,0.9-0.8,1.2-1.1c0.4-0.3,0.8-0.4,1.2-0.5c0.5-0.1,1,0,1.5,0.3c0.5,0.3,0.9,0.6,1.1,1.1c0.2,0.5,0.3,1,0.3,1.5
				c-0.1,0.6-0.2,1.1-0.6,1.7c-0.5,0.9-1.1,1.5-1.8,1.8c-0.7,0.3-1.5,0.3-2.3-0.1l1-1.9c0.3,0.1,0.6,0.2,0.9,0s0.6-0.4,0.8-0.8
				c0.2-0.3,0.2-0.7,0.2-0.9c-0.1-0.3-0.3-0.5-0.6-0.7c-0.2-0.1-0.5-0.2-0.7-0.1c-0.2,0.1-0.5,0.2-0.7,0.4c-0.2,0.2-0.5,0.4-0.8,0.8
				c-0.5,0.5-0.9,0.8-1.2,1.1c-0.4,0.3-0.8,0.4-1.2,0.5c-0.5,0.1-1,0-1.5-0.3c-0.5-0.3-0.8-0.6-1.1-1.1s-0.4-1-0.4-1.6
				c0-0.6,0.2-1.2,0.6-1.8C102.5,87,102.9,86.5,103.4,86.1z"/>
			<path class="st1" d="M97.7,102.4l-1.2-1.2l4.2-4.2l1.2,1.2L97.7,102.4z"/>
			<path class="st1" d="M85.3,105.5l3.5-1.7l-0.3-2l1.8-0.9l1.2,10.3l-2,1l-7.5-7.2l1.9-0.9L85.3,105.5z M86.5,106.7l3.1,3l-0.6-4.3
				L86.5,106.7z"/>
			<path class="st1" d="M76.4,106.3l2.9,3.2l0.9-0.2l-0.8-3.7l1.9-0.4l2.2,9.5l-3.6,0.8c-0.7,0.2-1.4,0.2-2,0s-1-0.4-1.4-0.8
				c-0.4-0.4-0.6-0.8-0.7-1.4c-0.1-0.6-0.1-1.2,0.2-1.8c0.2-0.6,0.7-1.1,1.4-1.4l-3.2-3.3L76.4,106.3z M80.6,110.8l-1.6,0.4
				c-0.5,0.1-0.9,0.3-1.1,0.6s-0.2,0.7-0.1,1.1c0.1,0.4,0.3,0.7,0.6,0.9c0.3,0.2,0.7,0.2,1.2,0.1l1.6-0.4L80.6,110.8z"/>
			<path class="st1" d="M66.5,116.8l0-1.6l2.6,0L69,107l2,0l0.1,8.2l2.6,0l0,1.6L66.5,116.8z"/>
			<path class="st1" d="M62,114.5l0.4-2.4l-3.2-0.6l0.3-1.5l3.2,0.6l0.5-2.5l-3.6-0.7l0.3-1.6l5.6,1l-1.8,9.6l-5.6-1l0.3-1.6
				L62,114.5z"/>
			<path class="st1" d="M45.9,109.7c-0.5-0.7-0.8-1.5-0.8-2.4s0.2-1.7,0.6-2.6c0.5-0.9,1-1.5,1.8-2c0.7-0.4,1.5-0.7,2.4-0.7
				c0.9,0,1.8,0.3,2.7,0.7l3,1.6l-4.6,8.6l-3-1.6C47.1,111.1,46.4,110.5,45.9,109.7z M49.3,104c-0.8,0.2-1.4,0.8-1.8,1.7
				c-0.5,0.9-0.6,1.7-0.4,2.5c0.2,0.8,0.8,1.4,1.7,1.9l1.2,0.6l3-5.7l-1.2-0.6C50.9,103.9,50.1,103.8,49.3,104z"/>
			<path class="st1" d="M40.5,104.7l1.6-1.9l-2.5-2.1l1-1.2l2.5,2.1l1.7-2l-2.8-2.4l1-1.2l4.3,3.7l-6.4,7.4l-4.3-3.7l1-1.2
				L40.5,104.7z"/>
			<path class="st1" d="M28.9,92.6c-0.1-0.9,0.1-1.7,0.5-2.4c0.4-0.8,1-1.4,1.8-1.9c0.8-0.5,1.7-0.8,2.5-0.8c0.8,0,1.6,0.2,2.4,0.6
				s1.4,1.1,2,2l1.8,2.9l-8.3,5.2l-1.8-2.9C29.3,94.3,29,93.4,28.9,92.6z M34.8,89.4c-0.8-0.2-1.6,0-2.4,0.6c-0.9,0.5-1.4,1.2-1.6,2
				c-0.2,0.8,0,1.6,0.5,2.5l0.7,1.2l5.5-3.4l-0.7-1.2C36.2,90.1,35.5,89.5,34.8,89.4z"/>
			<path class="st1" d="M25.4,86.4l9-3.7l0.7,1.8l-9,3.7L25.4,86.4z"/>
			<path class="st1" d="M33.2,79.9c-0.1,0.6-0.3,1.1-0.7,1.5s-0.8,0.7-1.4,0.8l-0.5-2c0.4-0.1,0.7-0.3,0.8-0.6
				c0.2-0.3,0.2-0.7,0.1-1.1c-0.1-0.4-0.3-0.8-0.6-1s-0.6-0.3-0.9-0.2c-0.3,0.1-0.5,0.2-0.6,0.4c-0.1,0.2-0.2,0.5-0.3,0.7
				c0,0.3-0.1,0.7-0.1,1.2c0,0.7-0.1,1.2-0.2,1.6c-0.1,0.4-0.3,0.8-0.6,1.2s-0.7,0.6-1.3,0.8c-0.6,0.1-1.1,0.1-1.6-0.1
				c-0.5-0.2-0.9-0.5-1.2-1c-0.3-0.5-0.6-1-0.7-1.7c-0.2-1-0.2-1.8,0.2-2.6s0.9-1.2,1.8-1.5l0.5,2.1c-0.3,0.1-0.6,0.3-0.7,0.6
				c-0.2,0.3-0.2,0.7-0.1,1.1c0.1,0.4,0.3,0.6,0.5,0.8s0.5,0.2,0.9,0.1c0.3-0.1,0.4-0.2,0.6-0.4c0.1-0.2,0.2-0.4,0.3-0.7
				s0.1-0.7,0.1-1.1c0-0.7,0.1-1.2,0.2-1.6c0.1-0.4,0.3-0.8,0.6-1.2s0.7-0.6,1.3-0.8c0.5-0.1,1-0.1,1.5,0.1s0.9,0.5,1.3,0.9
				c0.4,0.4,0.7,1,0.8,1.7C33.3,78.7,33.3,79.3,33.2,79.9z"/>
			<path class="st1" d="M24.5,73.2c-0.8-0.4-1.3-1-1.7-1.8c-0.4-0.8-0.6-1.6-0.6-2.5c0-1.1,0.3-2,0.9-2.9c0.6-0.8,1.4-1.4,2.4-1.7
				l0,2.3c-0.5,0.2-0.8,0.5-1.1,0.9c-0.2,0.4-0.4,0.9-0.4,1.4c0,0.6,0.1,1.1,0.4,1.5c0.3,0.4,0.6,0.8,1.1,1.1s1,0.4,1.7,0.4
				c0.6,0,1.2-0.1,1.7-0.3c0.5-0.2,0.9-0.6,1.2-1c0.3-0.4,0.4-0.9,0.4-1.5c0-0.5-0.1-1-0.3-1.4c-0.2-0.4-0.6-0.7-1-1l0-2.3
				c1,0.3,1.8,0.9,2.3,1.8s0.8,1.8,0.8,2.9c0,0.9-0.2,1.8-0.7,2.5c-0.4,0.7-1,1.3-1.8,1.7c-0.8,0.4-1.6,0.6-2.6,0.6
				C26.1,73.9,25.2,73.7,24.5,73.2z"/>
			<path class="st1" d="M32.3,61.3c-0.6,0.6-1.4,1-2.2,1.2s-1.7,0.2-2.7-0.1c-0.9-0.3-1.7-0.7-2.3-1.4s-1-1.4-1.2-2.2
				c-0.2-0.9-0.2-1.7,0.1-2.6c0.3-0.9,0.7-1.6,1.3-2.2c0.6-0.6,1.4-1,2.2-1.2c0.9-0.2,1.7-0.2,2.7,0.1c0.9,0.3,1.7,0.7,2.3,1.4
				c0.6,0.6,1,1.4,1.2,2.2c0.2,0.9,0.2,1.7-0.1,2.6C33.4,59.9,32.9,60.7,32.3,61.3z M32,56.9c-0.1-0.5-0.4-0.9-0.8-1.3
				c-0.4-0.4-0.9-0.7-1.5-0.8c-0.6-0.2-1.2-0.2-1.8-0.1c-0.5,0.1-1,0.3-1.4,0.7s-0.6,0.8-0.8,1.4s-0.2,1.1-0.1,1.6
				c0.1,0.5,0.4,1,0.8,1.3s0.9,0.7,1.5,0.8c0.6,0.2,1.2,0.2,1.8,0.1c0.5-0.1,1-0.3,1.4-0.7s0.7-0.8,0.8-1.4S32.1,57.4,32,56.9z"/>
			<path class="st1" d="M36,52c-0.5,0.4-1,0.6-1.5,0.6c-0.5,0.1-1.1-0.1-1.6-0.4l1.1-1.8c0.4,0.2,0.7,0.2,1,0.1
				c0.3-0.1,0.6-0.3,0.8-0.7c0.2-0.4,0.3-0.8,0.3-1.1c-0.1-0.3-0.2-0.6-0.5-0.8c-0.3-0.1-0.5-0.2-0.8-0.1s-0.5,0.2-0.7,0.4
				c-0.2,0.2-0.5,0.4-0.9,0.8c-0.5,0.5-0.9,0.8-1.3,1.1c-0.4,0.3-0.8,0.4-1.2,0.5s-1-0.1-1.5-0.4c-0.5-0.3-0.9-0.7-1.1-1.1
				c-0.2-0.5-0.3-1-0.2-1.5c0.1-0.6,0.3-1.1,0.6-1.7c0.5-0.9,1.1-1.5,1.9-1.8s1.5-0.3,2.3,0.1l-1.1,1.9c-0.3-0.2-0.6-0.2-0.9-0.1
				c-0.3,0.1-0.6,0.4-0.8,0.7c-0.2,0.3-0.3,0.6-0.2,0.9c0.1,0.3,0.2,0.5,0.6,0.7c0.2,0.1,0.5,0.2,0.7,0.1c0.2-0.1,0.5-0.2,0.7-0.3
				c0.2-0.2,0.5-0.4,0.9-0.8c0.5-0.5,0.9-0.8,1.3-1.1c0.4-0.3,0.8-0.4,1.2-0.5c0.5-0.1,1,0.1,1.5,0.4c0.5,0.3,0.8,0.6,1.1,1.1
				c0.3,0.5,0.4,1,0.3,1.6c0,0.6-0.2,1.2-0.6,1.8C36.9,51.2,36.5,51.7,36,52z"/>
			<path class="st1" d="M39.4,38.3l1.2,1.1l-4,4.4l-1.2-1.1L39.4,38.3z"/>
		</g>
	</g>
	<circle class="st2" cx="69.5" cy="69.5" r="68.4"/>
</g>
</svg>
