<?xml version="1.0" encoding="utf-8"?>
<!-- Generator: Adobe Illustrator 24.1.2, SVG Export Plug-In . SVG Version: 6.00 Build 0)  -->
<svg version="1.1" id="Layer_1" xmlns="http://www.w3.org/2000/svg" xmlns:xlink="http://www.w3.org/1999/xlink" x="0px" y="0px"
	 viewBox="0 0 519.32 388.58" style="enable-background:new 0 0 519.32 388.58;" xml:space="preserve">
<style type="text/css">
	.st0{fill:#804192;}
	.st1{fill:#003C35;}
	.st2{fill:#FFFFFF;stroke:#1A2E35;stroke-miterlimit:10;}
	.st3{fill:none;stroke:#1A2E35;stroke-miterlimit:10;}
	.st4{fill:#D880D8;}
	.st5{fill:#FFFFFF;stroke:#1A2E35;stroke-linecap:round;stroke-linejoin:round;stroke-miterlimit:10;}
	.st6{fill:#1A2E35;stroke:#1A2E35;stroke-linecap:round;stroke-linejoin:round;stroke-miterlimit:10;}
	.st7{fill:#1A2E35;}
	.st8{fill:none;stroke:#1A2E35;stroke-linecap:round;stroke-linejoin:round;stroke-miterlimit:10;}
	.st9{fill:#00E8CC;stroke:#003C35;stroke-miterlimit:10;}
	.st10{fill:none;stroke:#1A2E35;stroke-width:2;stroke-linecap:round;stroke-linejoin:round;stroke-miterlimit:10;}
	.st11{fill:#D880D8;stroke:#003C35;stroke-miterlimit:10;}
	.st12{fill:none;stroke:#FFFFFF;stroke-miterlimit:10;}
	.st13{fill:#00E8CC;}
</style>
<g>
	<g>
		<path class="st0" d="M26.33,274.52c2.97-0.22,8.82-3.46,8.82-3.47c0.06-0.03-3.31-3.2-3.55-3.38c-2.73-2.03-9.19-4.35-12.29-2.14
			c-2.23,1.59-2.3,4.7-0.57,6.68C20.52,274.24,23.8,274.71,26.33,274.52z"/>
		<path class="st0" d="M37.39,290.58c2.7-0.96,7.17-5.27,7.53-5.61c2.39,2.52,5.04,4.9,7.87,7.17c1.61,1.3,3.27,2.56,4.96,3.8
			c-0.85-0.45-1.62-0.85-1.73-0.89c-3.17-1.24-10.01-1.77-12.42,1.18c-1.73,2.13-0.98,5.14,1.22,6.6c2.24,1.48,5.53,1.07,7.92,0.22
			c2.43-0.86,6.32-4.46,7.33-5.42c0.65,0.47,1.3,0.94,1.95,1.41c3.13,2.24,6.27,4.46,9.27,6.73c1.06,0.8,2.07,1.63,3.09,2.45
			c-0.76-0.4-1.4-0.73-1.5-0.77c-3.17-1.24-10.01-1.77-12.42,1.18c-1.73,2.13-0.98,5.14,1.22,6.6c2.24,1.48,5.53,1.07,7.92,0.22
			c2.32-0.82,5.94-4.11,7.15-5.25c1.02,0.87,2.04,1.75,2.98,2.64c0.63,0.62,1.28,1.18,1.88,1.85c0.61,0.64,1.21,1.28,1.81,1.91
			c1.1,1.26,2.25,2.55,3.3,3.8c0.73,0.87,1.42,1.71,2.11,2.55c-1.05-0.81-3.13-2.35-3.32-2.46c-2.94-1.7-9.63-3.27-12.46-0.72
			c-2.04,1.84-1.75,4.94,0.2,6.7c1.99,1.8,5.3,1.89,7.8,1.42c2.75-0.52,7.64-3.94,8.25-4.37c1.14,1.4,2.23,2.77,3.24,4.08
			c2.73,3.52,4.99,6.66,6.75,9.18l2.24-1.18c-1.87-2.56-4.29-5.77-7.23-9.4c-1.15-1.43-2.41-2.93-3.71-4.46
			c0.31-0.36,2.07-2.44,3.47-4.59c2.71,0.96,8.28,0.82,9,0.79c0.18,1.8,0.33,3.54,0.45,5.2c0.32,4.31,0.48,8.09,0.56,11.12
			l2.44-1.28c-0.15-2.84-0.38-6.22-0.75-10.03c-0.17-1.82-0.39-3.77-0.64-5.77c0.7-0.2,6.44-1.88,8.57-3.7
			c1.93-1.65,3.93-4.29,3.77-6.97c-0.16-2.63-2.39-4.79-5.1-4.35c-3.76,0.61-6.72,6.8-7.23,10.17c-0.03,0.2-0.12,2.39-0.15,3.77
			c-0.1-0.82-0.2-1.61-0.31-2.44c-0.22-1.66-0.49-3.31-0.78-5.08c-0.17-0.85-0.34-1.71-0.51-2.58c-0.15-0.86-0.42-1.76-0.63-2.65
			c-0.53-2.05-1.16-4.11-1.84-6.16c1.45-0.2,6.59-0.98,8.76-2.32c2.16-1.34,4.54-3.64,4.78-6.32c0.24-2.62-1.64-5.1-4.38-5.08
			c-3.81,0.03-7.68,5.71-8.69,8.95c-0.06,0.2-0.53,2.61-0.76,3.94c-0.42-1.23-0.83-2.46-1.3-3.7c-1.34-3.56-2.82-7.12-4.27-10.68
			c-0.45-1.09-0.88-2.18-1.31-3.27c0.52-0.06,6.65-0.86,9.08-2.36c2.16-1.34,4.54-3.64,4.79-6.32c0.24-2.62-1.64-5.1-4.38-5.07
			c-3.81,0.03-7.68,5.71-8.69,8.95c-0.08,0.24-0.74,3.71-0.87,4.6c-0.96-2.4-1.89-4.81-2.71-7.21c-1.14-3.32-2.08-6.64-2.74-9.92
			c0.24-0.03,6.65-0.83,9.13-2.37c2.16-1.34,4.54-3.64,4.78-6.32c0.24-2.62-1.64-5.1-4.38-5.07c-3.81,0.03-7.68,5.71-8.69,8.95
			c-0.08,0.25-0.79,3.99-0.88,4.67c-0.04-0.2-0.1-0.39-0.14-0.59c-0.67-3.51-0.88-7-0.91-10.28c-0.02-1.9,0.06-3.72,0.18-5.49
			c1.21-0.03,6.73-0.21,9.12-1.35c2.29-1.09,4.91-3.12,5.45-5.76c0.53-2.58-1.07-5.25-3.8-5.53c-3.79-0.39-8.26,4.83-9.62,7.94
			c-0.07,0.17-0.64,1.97-1.03,3.3c0.07-0.8,0.12-1.62,0.2-2.38c0.29-2.86,0.74-5.47,1.15-7.77c0.24-1.31,0.49-2.49,0.73-3.59
			c1.17-0.64,5.86-3.3,7.43-5.38c1.53-2.03,2.92-5.03,2.18-7.62c-0.72-2.53-3.37-4.16-5.92-3.15c-3.54,1.4-5.1,8.09-4.88,11.48
			c0.02,0.29,0.85,4.84,0.91,4.81c0,0,0.06-0.03,0.07-0.04c-0.26,1.05-0.52,2.19-0.78,3.43c-0.46,2.3-0.96,4.9-1.32,7.77
			c-0.36,2.87-0.67,5.99-0.71,9.31c-0.04,3.33,0.09,6.83,0.7,10.43c0.01,0.04,0.02,0.08,0.03,0.12c-0.5-1-2-3.73-2.14-3.93
			c-1.96-2.78-7.38-7-11.01-5.87c-2.62,0.82-3.66,3.75-2.62,6.17c1.05,2.47,4.02,3.94,6.49,4.55c2.78,0.69,8.89-0.44,9.37-0.53
			c0.6,3.42,1.5,6.87,2.6,10.32c0.63,1.97,1.32,3.94,2.04,5.9c-0.46-0.85-0.88-1.6-0.95-1.7c-1.96-2.78-7.38-7-11.01-5.87
			c-2.62,0.82-3.66,3.75-2.62,6.17c1.05,2.47,4.02,3.94,6.49,4.55c2.5,0.62,7.73-0.23,9.11-0.48c0.28,0.75,0.56,1.5,0.85,2.25
			c1.38,3.59,2.77,7.17,4.02,10.73c0.44,1.25,0.83,2.5,1.23,3.75c-0.41-0.75-0.76-1.38-0.83-1.47c-1.96-2.78-7.38-7-11.01-5.87
			c-2.62,0.82-3.66,3.75-2.62,6.17c1.05,2.47,4.02,3.94,6.49,4.55c2.39,0.6,7.22-0.15,8.86-0.44c0.37,1.29,0.73,2.58,1.03,3.85
			c0.18,0.87,0.42,1.7,0.55,2.58c0.15,0.87,0.3,1.74,0.45,2.59c0.23,1.66,0.47,3.37,0.65,4.99c0.13,1.13,0.24,2.2,0.35,3.29
			c-0.43-1.25-1.31-3.68-1.41-3.88c-1.01-2.02-3.43-4.9-6.04-6.44c-0.15-0.3-0.32-0.59-0.52-0.85c-1.58-2.1-4.64-2.68-6.66-0.81
			c-2.8,2.58-1.85,9.38-0.43,12.47c0.08,0.18,1.22,2.06,1.95,3.23c-0.54-0.62-1.05-1.23-1.61-1.87c-1.1-1.26-2.23-2.49-3.45-3.81
			c-0.61-0.62-1.23-1.24-1.85-1.87c-0.6-0.64-1.32-1.24-1.99-1.86c-1.57-1.42-3.23-2.79-4.94-4.12c1.1-0.97,4.96-4.45,6.03-6.77
			c1.06-2.31,1.77-5.54,0.5-7.91c-1.24-2.32-4.18-3.35-6.46-1.81c-3.16,2.13-3.25,8.99-2.31,12.26c0.06,0.2,1,2.47,1.54,3.71
			c-1.03-0.8-2.06-1.6-3.12-2.37c-3.08-2.23-6.28-4.38-9.45-6.55c-0.97-0.66-1.93-1.34-2.9-2c0.4-0.34,5.08-4.38,6.27-6.98
			c1.06-2.31,1.77-5.54,0.51-7.91c-1.24-2.32-4.18-3.35-6.46-1.81c-3.16,2.13-3.25,9-2.31,12.26c0.07,0.25,1.43,3.51,1.82,4.32
			c-2.12-1.48-4.23-2.97-6.24-4.52c-2.78-2.14-5.39-4.39-7.76-6.76c0.18-0.16,5.09-4.36,6.31-7.01c1.06-2.31,1.77-5.54,0.51-7.91
			c-1.24-2.32-4.18-3.35-6.46-1.81c-3.16,2.13-3.25,8.99-2.31,12.26c0.07,0.26,1.54,3.76,1.85,4.38c-0.14-0.14-0.3-0.27-0.44-0.41
			c-2.5-2.56-4.59-5.36-6.43-8.07c-1.07-1.57-2-3.14-2.88-4.68c0.99-0.69,5.5-3.88,6.86-6.16c1.31-2.18,2.37-5.31,1.37-7.81
			c-0.98-2.44-3.79-3.79-6.22-2.51c-3.37,1.77-4.22,8.58-3.64,11.93c0.03,0.18,0.56,2,0.96,3.32c-0.38-0.7-0.79-1.42-1.15-2.1
			c-1.34-2.55-2.4-4.97-3.33-7.12c-0.52-1.23-0.96-2.35-1.37-3.4c0.62-1.18,3.07-5.99,3.23-8.58c0.16-2.53-0.34-5.81-2.38-7.56
			c-2-1.72-5.11-1.61-6.68,0.64c-2.18,3.12,0.21,9.56,2.27,12.27c0.18,0.23,3.38,3.57,3.41,3.51c0,0,0.03-0.06,0.04-0.07
			c0.37,1.02,0.78,2.11,1.25,3.29c0.88,2.17,1.9,4.62,3.19,7.21c1.28,2.59,2.74,5.37,4.55,8.16c1.81,2.8,3.85,5.65,6.33,8.31
			c0.03,0.03,0.06,0.06,0.09,0.09c-0.97-0.55-3.73-2.01-3.95-2.1c-3.17-1.24-10.01-1.77-12.42,1.18c-1.73,2.13-0.98,5.15,1.22,6.6
			C31.71,291.84,35,291.42,37.39,290.58z"/>
		<path class="st0" d="M86.83,244.32c0.07,0.01-0.99-4.5-1.09-4.77c-1.15-3.2-5.27-8.7-9.07-8.57c-2.74,0.09-4.52,2.65-4.16,5.26
			c0.36,2.66,2.84,4.86,5.05,6.11C80.16,243.8,86.83,244.32,86.83,244.32z"/>
	</g>
</g>
<g>
	<g>
		<path class="st0" d="M486.47,274.52c-2.97-0.22-8.82-3.46-8.82-3.47c-0.06-0.03,3.31-3.2,3.55-3.38
			c2.73-2.03,9.19-4.35,12.29-2.14c2.23,1.59,2.3,4.7,0.57,6.68C492.28,274.24,489,274.71,486.47,274.52z"/>
		<path class="st0" d="M475.4,290.58c-2.7-0.96-7.17-5.27-7.53-5.61c-2.39,2.52-5.04,4.9-7.87,7.17c-1.61,1.3-3.27,2.56-4.96,3.8
			c0.85-0.45,1.62-0.85,1.73-0.89c3.17-1.24,10.01-1.77,12.42,1.18c1.73,2.13,0.98,5.14-1.22,6.6c-2.24,1.48-5.53,1.07-7.92,0.22
			c-2.43-0.86-6.32-4.46-7.33-5.42c-0.65,0.47-1.3,0.94-1.95,1.41c-3.13,2.24-6.27,4.46-9.27,6.73c-1.06,0.8-2.07,1.63-3.09,2.45
			c0.76-0.4,1.4-0.73,1.5-0.77c3.17-1.24,10.01-1.77,12.42,1.18c1.73,2.13,0.98,5.14-1.22,6.6c-2.24,1.48-5.53,1.07-7.92,0.22
			c-2.32-0.82-5.94-4.11-7.15-5.25c-1.02,0.87-2.04,1.75-2.98,2.64c-0.63,0.62-1.28,1.18-1.88,1.85c-0.61,0.64-1.21,1.28-1.81,1.91
			c-1.1,1.26-2.25,2.55-3.3,3.8c-0.73,0.87-1.42,1.71-2.11,2.55c1.05-0.81,3.13-2.35,3.32-2.46c2.94-1.7,9.63-3.27,12.46-0.72
			c2.04,1.84,1.75,4.94-0.2,6.7c-1.99,1.8-5.3,1.89-7.8,1.42c-2.75-0.52-7.64-3.94-8.25-4.37c-1.14,1.4-2.23,2.77-3.24,4.08
			c-2.73,3.52-4.99,6.66-6.75,9.18l-2.24-1.18c1.87-2.56,4.29-5.77,7.23-9.4c1.15-1.43,2.41-2.93,3.71-4.46
			c-0.31-0.36-2.07-2.44-3.47-4.59c-2.71,0.96-8.28,0.82-9,0.79c-0.18,1.8-0.33,3.54-0.45,5.2c-0.32,4.31-0.48,8.09-0.56,11.12
			l-2.44-1.28c0.15-2.84,0.38-6.22,0.75-10.03c0.17-1.82,0.39-3.77,0.64-5.77c-0.7-0.2-6.44-1.88-8.57-3.7
			c-1.93-1.65-3.93-4.29-3.77-6.97c0.16-2.63,2.39-4.79,5.1-4.35c3.76,0.61,6.72,6.8,7.24,10.17c0.03,0.2,0.12,2.39,0.15,3.77
			c0.1-0.82,0.2-1.61,0.31-2.44c0.22-1.66,0.49-3.31,0.78-5.08c0.17-0.85,0.34-1.71,0.51-2.58c0.15-0.86,0.42-1.76,0.63-2.65
			c0.53-2.05,1.16-4.11,1.84-6.16c-1.45-0.2-6.59-0.98-8.76-2.32c-2.16-1.34-4.54-3.64-4.78-6.32c-0.24-2.62,1.64-5.1,4.38-5.08
			c3.81,0.03,7.68,5.71,8.69,8.95c0.06,0.2,0.53,2.61,0.76,3.94c0.42-1.23,0.83-2.46,1.3-3.7c1.34-3.56,2.82-7.12,4.27-10.68
			c0.45-1.09,0.88-2.18,1.31-3.27c-0.52-0.06-6.65-0.86-9.08-2.36c-2.16-1.34-4.54-3.64-4.79-6.32c-0.24-2.62,1.64-5.1,4.38-5.07
			c3.81,0.03,7.68,5.71,8.69,8.95c0.08,0.24,0.74,3.71,0.87,4.6c0.96-2.4,1.89-4.81,2.71-7.21c1.14-3.32,2.08-6.64,2.74-9.92
			c-0.24-0.03-6.65-0.83-9.13-2.37c-2.16-1.34-4.54-3.64-4.78-6.32c-0.24-2.62,1.64-5.1,4.38-5.07c3.81,0.03,7.68,5.71,8.69,8.95
			c0.08,0.25,0.79,3.99,0.88,4.67c0.04-0.2,0.1-0.39,0.14-0.59c0.67-3.51,0.88-7,0.91-10.28c0.02-1.9-0.06-3.72-0.18-5.49
			c-1.21-0.03-6.73-0.21-9.12-1.35c-2.29-1.09-4.91-3.12-5.45-5.76c-0.53-2.58,1.07-5.25,3.8-5.53c3.79-0.39,8.26,4.83,9.62,7.94
			c0.07,0.17,0.64,1.97,1.03,3.3c-0.07-0.8-0.12-1.62-0.2-2.38c-0.29-2.86-0.74-5.47-1.15-7.77c-0.24-1.31-0.49-2.49-0.73-3.59
			c-1.17-0.64-5.86-3.3-7.43-5.38c-1.53-2.03-2.92-5.03-2.18-7.62c0.72-2.53,3.37-4.16,5.92-3.15c3.54,1.4,5.1,8.09,4.88,11.48
			c-0.02,0.29-0.85,4.84-0.91,4.81c0,0-0.06-0.03-0.07-0.04c0.26,1.05,0.52,2.19,0.78,3.43c0.46,2.3,0.96,4.9,1.32,7.77
			c0.36,2.87,0.67,5.99,0.71,9.31c0.04,3.33-0.09,6.83-0.7,10.43c-0.01,0.04-0.02,0.08-0.03,0.12c0.5-1,2-3.73,2.14-3.93
			c1.96-2.78,7.38-7,11.01-5.87c2.62,0.82,3.66,3.75,2.62,6.17c-1.05,2.47-4.02,3.94-6.49,4.55c-2.78,0.69-8.89-0.44-9.37-0.53
			c-0.6,3.42-1.5,6.87-2.6,10.32c-0.63,1.97-1.32,3.94-2.04,5.9c0.46-0.85,0.88-1.6,0.95-1.7c1.96-2.78,7.38-7,11.01-5.87
			c2.62,0.82,3.66,3.75,2.62,6.17c-1.05,2.47-4.02,3.94-6.49,4.55c-2.5,0.62-7.73-0.23-9.11-0.48c-0.28,0.75-0.56,1.5-0.85,2.25
			c-1.38,3.59-2.77,7.17-4.02,10.73c-0.44,1.25-0.83,2.5-1.23,3.75c0.41-0.75,0.76-1.38,0.83-1.47c1.96-2.78,7.38-7,11.01-5.87
			c2.62,0.82,3.66,3.75,2.62,6.17c-1.05,2.47-4.02,3.94-6.49,4.55c-2.39,0.6-7.22-0.15-8.86-0.44c-0.37,1.29-0.73,2.58-1.03,3.85
			c-0.18,0.87-0.42,1.7-0.55,2.58c-0.15,0.87-0.3,1.74-0.45,2.59c-0.23,1.66-0.47,3.37-0.65,4.99c-0.13,1.13-0.24,2.2-0.35,3.29
			c0.43-1.25,1.31-3.68,1.41-3.88c1.01-2.02,3.43-4.9,6.04-6.44c0.15-0.3,0.32-0.59,0.52-0.85c1.58-2.1,4.64-2.68,6.66-0.81
			c2.8,2.58,1.85,9.38,0.43,12.47c-0.08,0.18-1.22,2.06-1.95,3.23c0.54-0.62,1.05-1.23,1.61-1.87c1.1-1.26,2.23-2.49,3.45-3.81
			c0.61-0.62,1.23-1.24,1.85-1.87c0.6-0.64,1.32-1.24,1.99-1.86c1.57-1.42,3.23-2.79,4.94-4.12c-1.1-0.97-4.96-4.45-6.03-6.77
			c-1.06-2.31-1.77-5.54-0.5-7.91c1.24-2.32,4.18-3.35,6.46-1.81c3.16,2.13,3.25,8.99,2.31,12.26c-0.06,0.2-1,2.47-1.54,3.71
			c1.03-0.8,2.06-1.6,3.12-2.37c3.08-2.23,6.28-4.38,9.45-6.55c0.97-0.66,1.93-1.34,2.9-2c-0.4-0.34-5.08-4.38-6.27-6.98
			c-1.06-2.31-1.77-5.54-0.51-7.91c1.24-2.32,4.18-3.35,6.46-1.81c3.16,2.13,3.25,9,2.31,12.26c-0.07,0.25-1.43,3.51-1.82,4.32
			c2.12-1.48,4.23-2.97,6.24-4.52c2.78-2.14,5.39-4.39,7.76-6.76c-0.18-0.16-5.09-4.36-6.31-7.01c-1.06-2.31-1.77-5.54-0.51-7.91
			c1.24-2.32,4.18-3.35,6.46-1.81c3.16,2.13,3.26,8.99,2.31,12.26c-0.07,0.26-1.54,3.76-1.85,4.38c0.14-0.14,0.3-0.27,0.44-0.41
			c2.5-2.56,4.59-5.36,6.43-8.07c1.07-1.57,2-3.14,2.88-4.68c-0.99-0.69-5.5-3.88-6.86-6.16c-1.31-2.18-2.37-5.31-1.37-7.81
			c0.98-2.44,3.79-3.79,6.22-2.51c3.37,1.77,4.22,8.58,3.64,11.93c-0.03,0.18-0.56,2-0.96,3.32c0.38-0.7,0.79-1.42,1.15-2.1
			c1.34-2.55,2.4-4.97,3.33-7.12c0.52-1.23,0.96-2.35,1.37-3.4c-0.62-1.18-3.07-5.99-3.23-8.58c-0.16-2.53,0.34-5.81,2.38-7.56
			c2-1.72,5.11-1.61,6.68,0.64c2.18,3.12-0.21,9.56-2.27,12.27c-0.18,0.23-3.38,3.57-3.41,3.51c0,0-0.03-0.06-0.04-0.07
			c-0.37,1.02-0.78,2.11-1.24,3.29c-0.88,2.17-1.9,4.62-3.19,7.21c-1.28,2.59-2.74,5.37-4.55,8.16c-1.81,2.8-3.85,5.65-6.33,8.31
			c-0.03,0.03-0.06,0.06-0.09,0.09c0.97-0.55,3.73-2.01,3.95-2.1c3.17-1.24,10.01-1.77,12.42,1.18c1.73,2.13,0.98,5.15-1.22,6.6
			C481.08,291.84,477.8,291.42,475.4,290.58z"/>
		<path class="st0" d="M425.96,244.32c-0.07,0.01,0.99-4.5,1.09-4.77c1.15-3.2,5.27-8.7,9.07-8.57c2.74,0.09,4.52,2.65,4.16,5.26
			c-0.36,2.66-2.84,4.86-5.05,6.11C432.63,243.8,425.97,244.32,425.96,244.32z"/>
	</g>
</g>
<g>
	<polygon class="st1" points="97.63,185.01 256.77,95.43 419.81,185.01 419.81,314.86 99.58,314.86 	"/>
	<g>
		<rect x="139.61" y="119.59" class="st2" width="238.22" height="211.86"/>
		<g>
			<line class="st3" x1="166.95" y1="156.69" x2="347.57" y2="156.69"/>
			<line class="st3" x1="166.95" y1="175.24" x2="347.57" y2="175.24"/>
			<line class="st3" x1="166.95" y1="193.79" x2="347.57" y2="193.79"/>
			<line class="st3" x1="166.95" y1="212.34" x2="347.57" y2="212.34"/>
			<line class="st3" x1="166.95" y1="230.89" x2="347.57" y2="230.89"/>
			<line class="st3" x1="166.95" y1="249.44" x2="347.57" y2="249.44"/>
		</g>
	</g>
	<polygon class="st4" points="419.81,363.67 97.63,363.67 97.63,185.01 258.72,294.35 419.81,185.01 	"/>
	<line class="st3" x1="97.63" y1="363.67" x2="214.77" y2="264.46"/>
	<line class="st3" x1="419.3" y1="363.67" x2="303.03" y2="264.31"/>
</g>
<g>
	<g>
		<path class="st5" d="M293.57,60.53c0,0-1.21,5.66,0.4,7.48s7.68,8.29,7.68,9.3c0,1.01-2.02,30.13-2.02,30.13l-9.3-6.67
			l-5.66,17.39c0,0,14.15,6.07,20.83,7.28c6.67,1.21,7.89-0.61,7.89-5.86c0-5.26-5.26-45.5-5.26-45.5s1.62-9.3,1.62-10.92
			s0.61-2.43-0.81-3.24C307.52,59.12,296,57.9,296,57.9S293.57,58.92,293.57,60.53z"/>
		<polygon class="st6" points="290.57,103.22 287.49,118.81 284.67,118.16 		"/>
		<g>
			<path class="st7" d="M313.28,65.08l-22.91-3.08v-5.71c0-0.54,0.44-0.98,0.98-0.98c0.54,0,0.98,0.44,0.98,0.98v4l19.15,2.58
				l0.33-4.63c0.04-0.54,0.49-0.94,1.04-0.9c0.54,0.04,0.94,0.51,0.9,1.04L313.28,65.08z"/>
		</g>
		<polygon class="st5" points="295.59,63.16 308.13,64.38 308.94,59.93 296,57.9 		"/>
		<path class="st5" d="M293.37,63.77c0,0,0-5.06,0.61-5.46c0.61-0.4,9.3,0.2,9.3,1.42c0,1.21,0,1.82-1.01,1.82
			c-1.01,0-3.03,0.2-3.03,0.2s4.65,4.25,3.24,8.09"/>
		<line class="st8" x1="299.64" y1="107.45" x2="298.83" y2="116.34"/>
	</g>
	<g>
		<path class="st5" d="M196.95,103.56c0,0-28.58,22.31-27.84,24.71c0.74,2.4,21.94,22.68,28.95,27.66
			c7.01,4.98,10.88,7.19,10.88,7.19l4.43,2.77c0,0-1.84,2.95-0.74,3.5c1.11,0.55,5.16,2.58,5.72,1.48c0.55-1.11,3.5-9.4,3.13-11.43
			c-0.37-2.03-11.06-3.69-11.8-4.43c-0.74-0.74-18.26-28.03-18.26-28.03l13.65-10.69L196.95,103.56z"/>
		<polygon class="st6" points="196.46,104.3 201.64,118.38 205.06,116.28 		"/>
		<path class="st8" d="M213.36,165.89c0,0,1.29,2.77,3.5,2.95"/>
		<line class="st8" x1="191.42" y1="126.98" x2="187.73" y2="120.52"/>
	</g>
	<g>
		<polygon class="st5" points="215.94,328.88 215.65,345.27 229.08,345.57 230.26,327.7 		"/>
		<polygon class="st6" points="216,327.99 216,332.04 229.92,332.69 230.25,328.48 		"/>
		<g>
			<path class="st1" d="M222.29,340.99c0,0-1.77-6.94-4.43-7.09c-2.66-0.15-3.99,1.92-5.02,3.84c-1.03,1.92-7.53,8.41-9.74,10.04
				s-7.09,3.69-7.82,8.41c-0.74,4.72,2.07,6.64,3.99,7.09s10.63,0.59,15.8,0c5.17-0.59,19.27,0.81,20.08,0
				c0.81-0.81,1.92-3.4,1.18-5.17c-0.74-1.77-2.07-3.69-2.07-3.69s1.48-4.28,0.59-6.64c-0.89-2.36-2.66-5.31-2.36-6.64
				c0.3-1.33,3.54-4.13,1.33-4.28c-2.21-0.15-5.76,2.51-7.97,3.25C223.62,340.84,222.29,340.99,222.29,340.99z"/>
			<path class="st5" d="M231.74,355.01c-2.07,0.3-10.04,4.13-15.06,5.31c-5.02,1.18-9.45,1.33-11.81,0.15s-4.43-4.72-6.2-6.94
				c-1.77-2.21-3.25,3.4-3.25,3.4l-0.24,0.11c-0.3,4.11,2.28,5.82,4.08,6.24c1.92,0.44,10.63,0.59,15.8,0
				c5.17-0.59,19.27,0.81,20.08,0c0.81-0.81,1.92-3.4,1.18-5.17c-0.74-1.77-2.07-3.69-2.07-3.69
				C233.36,354.28,233.81,354.72,231.74,355.01z"/>
			<path class="st5" d="M210.19,341.88c0,0,3.99-0.89,9.01,3.99l-2.66,2.21c0,0-5.17-3.99-8.41-3.99L210.19,341.88z"/>
			<path class="st5" d="M206.49,344.83c0,0,3.99-0.89,9.01,3.99l-2.66,2.21c0,0-5.17-3.99-8.41-3.99L206.49,344.83z"/>
			<line class="st8" x1="218.16" y1="344.39" x2="222.29" y2="340.99"/>
			<path class="st5" d="M212.84,351.03c0,0,1.03,2.21-0.74,3.54c-1.77,1.33-13.43-0.89-13.29-2.51c0.15-1.62,5.61-5.02,5.61-5.02
				S208.86,347.93,212.84,351.03z"/>
		</g>
	</g>
	<g>
		<polygon class="st5" points="300.65,328.88 300.95,345.27 287.51,345.57 286.33,327.7 		"/>
		<polygon class="st6" points="286.6,330.75 286.6,333.18 300.85,333.01 300.68,329.45 286.27,329.29 		"/>
		<g>
			<path class="st1" d="M294.31,340.99c0,0,1.77-6.94,4.43-7.09c2.66-0.15,3.99,1.92,5.02,3.84c1.03,1.92,7.53,8.41,9.74,10.04
				c2.21,1.62,7.09,3.69,7.82,8.41c0.74,4.72-2.07,6.64-3.99,7.09c-1.92,0.44-10.63,0.59-15.8,0c-5.17-0.59-19.27,0.81-20.08,0
				c-0.81-0.81-1.92-3.4-1.18-5.17c0.74-1.77,2.07-3.69,2.07-3.69s-1.48-4.28-0.59-6.64c0.89-2.36,2.66-5.31,2.36-6.64
				c-0.3-1.33-3.54-4.13-1.33-4.28c2.21-0.15,5.76,2.51,7.97,3.25C292.98,340.84,294.31,340.99,294.31,340.99z"/>
			<path class="st5" d="M284.86,355.01c2.07,0.3,10.04,4.13,15.06,5.31c5.02,1.18,9.45,1.33,11.81,0.15s4.43-4.72,6.2-6.94
				c1.77-2.21,3.25,3.4,3.25,3.4l0.24,0.11c0.3,4.11-2.28,5.82-4.08,6.24c-1.92,0.44-10.63,0.59-15.8,0
				c-5.17-0.59-19.27,0.81-20.08,0c-0.81-0.81-1.92-3.4-1.18-5.17c0.74-1.77,2.07-3.69,2.07-3.69
				C283.23,354.28,282.79,354.72,284.86,355.01z"/>
			<path class="st5" d="M306.41,341.88c0,0-3.99-0.89-9.01,3.99l2.66,2.21c0,0,5.17-3.99,8.41-3.99L306.41,341.88z"/>
			<path class="st5" d="M310.1,344.83c0,0-3.99-0.89-9.01,3.99l2.66,2.21c0,0,5.17-3.99,8.41-3.99L310.1,344.83z"/>
			<line class="st8" x1="298.44" y1="344.39" x2="294.31" y2="340.99"/>
			<path class="st5" d="M303.75,351.03c0,0-1.03,2.21,0.74,3.54c1.77,1.33,13.43-0.89,13.29-2.51c-0.15-1.62-5.61-5.02-5.61-5.02
				S307.74,347.93,303.75,351.03z"/>
		</g>
	</g>
	<g>
		<path class="st9" d="M222.11,155.89c0,0-7.81,31.89-10.74,58.9c-2.93,27.01-7.49,115.53-7.49,115.53h35.8
			c0,0,10.74-89.82,12.37-105.77c1.63-15.95,1.63-26.03,1.63-26.03l20.18,131.8h42.63c0,0-16.27-83.64-22.78-122.04
			c-6.51-38.4-15.62-53.37-15.62-53.37L222.11,155.89z"/>
		<g>
			<path class="st9" d="M252.7,158.17c-0.31,0.93-8.79,13.67-6.18,14.64c2.6,0.98,7.49,0.98,7.49-1.63s0-10.41,0-10.41
				s0.65,14.64,3.58,13.99c2.93-0.65,6.83,0,5.86-3.25c-0.98-3.25-8.46-13.67-8.46-13.67S253.68,155.24,252.7,158.17z"/>
			<path class="st3" d="M254.05,159.24c0,0,7.38,10.48,6.67,11.43s-1.67,1.91-2.38,0.48C257.62,169.72,254.05,159.24,254.05,159.24z
				"/>
			<path class="st3" d="M253.81,158.05c0,0-5.48,11.67-4.76,12.15c0.71,0.48,2.38,0.48,2.86-1.19
				C252.38,167.34,253.81,158.05,253.81,158.05z"/>
		</g>
		<path class="st8" d="M276.05,191.31c0.3,1.66,0.55,3.21,0.74,4.61"/>
		<path class="st8" d="M268.33,159.15c0,0,4.06,14.5,6.67,26.81"/>
		<path class="st8" d="M265.4,159.15c0,0,2.6,18.22,3.91,23.11"/>
		<path class="st8" d="M229.98,184.38c-0.14,1.26-0.26,2.41-0.38,3.4"/>
		<path class="st8" d="M232.53,159.15c0,0-1.08,11.14-2.03,20.33"/>
		<line class="st8" x1="229.92" y1="159.8" x2="228.62" y2="175.42"/>
	</g>
	<g>
		<path class="st1" d="M252.73,26.36c0,0,12.13,1.21,9.3,7.48s-5.66,7.48-6.27,7.48c-0.61,0-5.46-7.48-5.46-7.48L252.73,26.36z"/>
		<g>
			<path class="st5" d="M251.31,32.22c0,0,4.65,2.63,6.07,7.48c1.42,4.85,5.06,6.27,6.07,6.07c1.01-0.2,2.43,2.83,1.21,4.85
				c-1.21,2.02-1.21,2.02-1.21,2.02s1.01,13.75-0.2,15.57c-1.21,1.82-8.69,0.81-8.69,0.81s-1.62,6.47-0.2,10.51
				c1.42,4.04,5.66,6.07,7.28,6.07c1.62,0,5.06-2.02,9.71,0.4c4.65,2.43,20.22,14.15,20.22,14.15l-8.29,22.65l-8.9-4.65l6.27,38.62
				l-60.66,1.42c0,0,0.61-27.5-1.01-32.56c-1.62-5.06-4.25-9.71-4.25-9.71l-7.68,6.07l-10.72-18.6c0,0,15.77-15.77,22.04-17.19
				c6.27-1.42,13.75,0.4,16.18-2.63c2.43-3.03,0.4-17.39,0.4-17.39s-5.86-2.02-9.3-12.33c-3.44-10.31,8.29-21.03,8.29-21.03
				S239.18,27.37,251.31,32.22z"/>
			<polygon class="st6" points="254.55,69.03 249.08,68.1 253.47,73.15 			"/>
			<path class="st10" d="M251.98,43.17c0,0,0-3.84,3.44-3.84"/>
			<path class="st6" d="M261.02,57.1l-7.08-3.44c0,0-0.61,7.28,2.02,7.08C258.59,60.53,261.02,57.1,261.02,57.1z"/>
			<path class="st8" d="M254.09,46.92c0,0,2.28-2.47,4.18-0.38"/>
			<path class="st5" d="M253.89,55.97l6.36,2.07c0.48-0.54,0.77-0.94,0.77-0.94l-7.08-3.44C253.94,53.66,253.85,54.69,253.89,55.97z
				"/>
		</g>
		<g>
			<path class="st1" d="M214.31,40.92c0,0-4.45-9.1-10.72-8.09c-6.27,1.01-11.12,7.89-9.1,17.59c0,0,1.01,2.63,1.82,4.85
				c0,0-7.89-2.43-12.13,2.83c-4.25,5.26-1.01,10.72,3.84,13.35c4.85,2.63,7.68,2.43,7.68,2.43s-10.72,3.24-6.88,7.28
				c3.84,4.04,15.57,1.42,13.14-2.02c-2.43-3.44-4.25-3.03-4.25-3.03s9.71-3.64,8.7-6.27c-1.01-2.63-5.86-4.65-5.86-4.65
				s9.3,3.24,14.36,0.2c5.06-3.03,0.61-15.97,0.61-15.97L214.31,40.92z"/>
			<g>
				<path class="st1" d="M254.95,21.91c0,0,1.62,5.66-1.21,10.51c-2.83,4.85-8.9,13.14-9.71,22.45c-0.81,9.3,1.82,20.83,3.44,24.67
					c1.62,3.84-2.02,4.65-4.65,4.45c-2.63-0.2-3.64-1.82-3.64-5.46c0-3.64-0.81-10.11-0.81-10.11s-10.31-1.01-15.17-3.84
					c-4.85-2.83-11.93-12.54-8.9-23.66c3.03-11.12,11.12-14.36,15.97-16.38c4.85-2.02,11.53-1.82,16.18-2.83
					C251.11,20.7,254.75,19.48,254.95,21.91z"/>
				<path class="st5" d="M240.19,50.22l-1.82,7.28c0,0-3.84-1.82-4.45-5.06c-0.61-3.24,4.04-4.85,7.28-2.02"/>
			</g>
		</g>
	</g>
	<line class="st8" x1="299.23" y1="61.75" x2="296.61" y2="61.95"/>
	<g>
		<g>
			<polygon class="st11" points="280.32,55.91 347.71,65.33 338.56,15.48 278.24,44.52 			"/>
			
				<rect x="269.18" y="45.34" transform="matrix(0.9837 -0.1798 0.1798 0.9837 -4.7184 50.1593)" class="st11" width="10.18" height="11.52"/>
		</g>
	</g>
	<g>
		<path class="st1" d="M291.55,100.17c0,0-15.57-11.73-20.22-14.15c-4.59-2.39-7.99-0.46-9.64-0.41c-2.55,3.66-8.5,9.85-19.48,9.71
			c-13.3-0.17-17.01-7.57-17.81-9.73c-2.01,0.06-4.09,0.18-6.05,0.63c-6.27,1.42-22.04,17.19-22.04,17.19l10.72,18.6l7.68-6.07
			c0,0,2.63,4.65,4.25,9.71c1.62,5.06,1.01,32.56,1.01,32.56l60.66-1.42l-6.27-38.62l8.9,4.65L291.55,100.17z"/>
		<g>
			
				<ellipse transform="matrix(0.9728 -0.2316 0.2316 0.9728 -21.1442 60.911)" class="st12" cx="248.85" cy="120.51" rx="18.66" ry="18.66"/>
			<g>
				<polygon class="st13" points="260.25,112.06 238.12,112.06 249.03,122.57 				"/>
				<polygon class="st13" points="253.46,120.25 261.16,127.06 261.16,113.03 				"/>
				<polygon class="st13" points="244.68,120.24 236.88,112.72 236.88,126.74 				"/>
				<polygon class="st13" points="252.48,121.16 249.01,124.41 245.65,121.17 237.53,127.93 260.14,127.93 				"/>
			</g>
		</g>
	</g>
</g>
<line class="st3" x1="37.55" y1="363.67" x2="477.86" y2="363.67"/>
</svg>
