<?xml version="1.0" encoding="utf-8"?>
<!-- Generator: Adobe Illustrator 24.1.2, SVG Export Plug-In . SVG Version: 6.00 Build 0)  -->
<svg version="1.1" id="Layer_1" xmlns="http://www.w3.org/2000/svg" xmlns:xlink="http://www.w3.org/1999/xlink" x="0px" y="0px"
	 viewBox="0 0 107.39 79.88" style="enable-background:new 0 0 107.39 79.88;" xml:space="preserve">
<style type="text/css">
	.st0{fill:#FFFFFF;}
	.st1{fill:#00E8CC;}
</style>
<g id="Grupo_7_5_" transform="translate(-770.2 -824.2)">
	<g id="Grupo_6_5_" transform="translate(855 846)">
		<path id="Trazado_45_5_" class="st0" d="M-83.06,11.33c-0.25,0.01-0.5-0.04-0.72-0.17c-0.19-0.13-0.29-0.35-0.27-0.58
			c0.02-0.82,0.12-1.63,0.29-2.44c0.22-1.12,0.56-2.21,1.01-3.26c0.52-1.22,1.15-2.39,1.9-3.49c0.82-1.21,1.82-2.28,2.97-3.18
			c1.28-1,2.72-1.78,4.25-2.31c1.83-0.62,3.75-0.92,5.68-0.89c4.73,0.02,9.26,1.88,12.64,5.18c1.81,1.8,3.24,3.94,4.21,6.3
			c1.12,2.74,1.67,5.67,1.61,8.63c0.04,2.73-0.4,5.44-1.3,8.01c-0.79,2.24-2.04,4.3-3.68,6.03c-1.6,1.67-3.56,2.96-5.72,3.78
			c-2.39,0.9-4.92,1.34-7.47,1.3c-1.66,0.02-3.32-0.17-4.94-0.56c-1.36-0.33-2.67-0.81-3.92-1.42c-1.05-0.52-2.04-1.16-2.95-1.9
			c-0.74-0.61-1.43-1.27-2.06-1.98c-0.47-0.52-0.89-1.08-1.26-1.67c-0.29-0.48-0.47-0.8-0.56-0.97c-0.22-0.47-0.22-0.82,0-1.05
			c0.24-0.24,0.62-0.28,0.91-0.1c0.4,0.2,0.79,0.44,1.16,0.7c0.65,0.43,1.32,0.81,2.02,1.14c0.94,0.44,1.91,0.79,2.91,1.05
			c1.25,0.32,2.53,0.47,3.82,0.45c1.69,0.03,3.37-0.27,4.94-0.91c1.42-0.61,2.64-1.58,3.55-2.83c1.04-1.49,1.78-3.16,2.17-4.93
			c0.53-2.37,0.78-4.8,0.74-7.23c0-0.47-0.22-0.7-0.66-0.7L-83.06,11.33z M-61.53,7.01c-0.1-0.7-0.24-1.47-0.43-2.31
			c-0.2-0.87-0.45-1.73-0.74-2.58c-0.29-0.85-0.67-1.66-1.14-2.42c-0.42-0.69-0.97-1.3-1.63-1.78c-0.65-0.46-1.43-0.7-2.23-0.68
			c-1-0.03-1.97,0.32-2.73,0.97c-0.76,0.67-1.38,1.47-1.84,2.37c-0.48,0.94-0.84,1.94-1.05,2.97c-0.2,0.91-0.32,1.84-0.33,2.77
			c-0.08,0.7,0.19,1.39,0.72,1.86c0.4,0.32,0.88,0.52,1.38,0.58c0.32,0.04,0.65,0.06,0.97,0.06c0.51,0.01,1.12,0.03,1.82,0.06
			c0.7,0.03,1.44,0.06,2.21,0.08c0.77,0.03,1.49,0.06,2.17,0.08c0.68,0.03,1.25,0.05,1.71,0.06c0.47,0.01,0.74,0.02,0.83,0.02
			c0.39,0,0.55-0.18,0.5-0.54C-61.37,8.25-61.43,7.72-61.53,7.01z"/>
		<path id="Trazado_46_5_" class="st0" d="M21,32.02c0.18,0.03,0.35,0.13,0.48,0.27c0.09,0.11,0.13,0.25,0.1,0.39
			c-0.03,0.15-0.11,0.28-0.23,0.37c-0.15,0.12-0.33,0.18-0.52,0.17H1.43c-0.19,0.01-0.37-0.05-0.52-0.17
			c-0.11-0.09-0.19-0.23-0.23-0.37c-0.03-0.14,0.01-0.28,0.1-0.39c0.12-0.14,0.29-0.23,0.47-0.27c0.35-0.05,0.69-0.13,1.03-0.23
			c0.51-0.14,0.99-0.37,1.42-0.68c0.53-0.38,0.96-0.88,1.28-1.45c0.41-0.8,0.6-1.7,0.56-2.6V7.94C5.53,6.83,5.43,5.72,5.27,4.62
			C5.12,3.57,4.8,2.55,4.32,1.61C3.86,0.72,3.19-0.03,2.36-0.58C1.34-1.19,0.17-1.49-1.01-1.43c-1.02-0.04-2.04,0.17-2.95,0.62
			c-0.71,0.37-1.32,0.92-1.76,1.59c-0.42,0.66-0.71,1.4-0.87,2.17c-0.17,0.79-0.26,1.59-0.29,2.39v21.72
			c-0.05,0.9,0.15,1.8,0.56,2.6c0.32,0.57,0.75,1.06,1.28,1.45c0.43,0.31,0.91,0.54,1.42,0.68c0.34,0.1,0.68,0.17,1.03,0.23
			c0.18,0.03,0.35,0.13,0.47,0.27c0.09,0.11,0.13,0.25,0.1,0.39c-0.03,0.15-0.11,0.28-0.23,0.37c-0.15,0.12-0.33,0.18-0.52,0.17
			h-19.41c-0.19,0.01-0.37-0.05-0.52-0.17c-0.12-0.09-0.2-0.23-0.23-0.37c-0.03-0.14,0.01-0.28,0.1-0.39
			c0.12-0.14,0.29-0.23,0.47-0.27c0.35-0.05,0.69-0.13,1.03-0.23c0.51-0.14,0.99-0.37,1.43-0.68c0.53-0.38,0.97-0.88,1.28-1.45
			c0.41-0.8,0.6-1.7,0.56-2.6V7.9c-0.03-1.11-0.12-2.21-0.29-3.3c-0.15-1.04-0.47-2.06-0.95-2.99c-0.46-0.89-1.14-1.64-1.98-2.19
			c-1.01-0.61-2.17-0.9-3.34-0.85c-1.03-0.05-2.05,0.17-2.97,0.62c-0.71,0.38-1.31,0.92-1.76,1.59c-0.43,0.66-0.73,1.41-0.87,2.19
			c-0.15,0.8-0.24,1.6-0.27,2.42v21.68c-0.05,0.9,0.15,1.8,0.56,2.6c0.31,0.57,0.75,1.06,1.28,1.45c0.43,0.31,0.91,0.54,1.42,0.68
			c0.34,0.1,0.68,0.17,1.03,0.23c0.18,0.03,0.35,0.13,0.47,0.27c0.09,0.11,0.13,0.25,0.1,0.39c-0.03,0.15-0.11,0.28-0.23,0.37
			c-0.15,0.12-0.33,0.18-0.52,0.17h-19.41c-0.19,0.01-0.37-0.05-0.52-0.17c-0.12-0.09-0.2-0.23-0.23-0.37
			c-0.03-0.14,0.01-0.28,0.1-0.39c0.12-0.14,0.29-0.23,0.47-0.27c0.35-0.05,0.69-0.13,1.03-0.23c0.51-0.14,0.99-0.37,1.42-0.68
			c0.53-0.38,0.97-0.88,1.28-1.45c0.41-0.8,0.6-1.7,0.56-2.6V3.77c0.03-0.32-0.18-0.6-0.5-0.66c-0.2-0.03-0.4-0.07-0.6-0.12
			c-0.34-0.08-0.74-0.18-1.18-0.29c-0.44-0.11-0.85-0.21-1.22-0.29c-0.37-0.08-0.6-0.14-0.68-0.17c-0.36-0.08-0.54-0.27-0.56-0.56
			s0.19-0.49,0.6-0.6c1.18-0.28,2.34-0.61,3.49-1.01c1.25-0.43,2.51-0.91,3.78-1.45c1.27-0.54,2.49-1.11,3.68-1.73
			c1.09-0.57,2.16-1.19,3.18-1.88c0.22-0.16,0.49-0.23,0.76-0.21c0.26,0.03,0.39,0.23,0.39,0.62v3.06c1.35-1.03,2.85-1.86,4.44-2.46
			c1.98-0.72,4.07-1.06,6.17-1.01c1.4-0.02,2.8,0.11,4.17,0.37c1.09,0.21,2.16,0.56,3.16,1.05c0.84,0.42,1.62,0.96,2.29,1.61
			c0.62,0.6,1.15,1.29,1.57,2.04C-8-0.58-7.29-1.2-6.54-1.76c0.85-0.64,1.76-1.18,2.73-1.63c1.09-0.51,2.23-0.89,3.41-1.16
			c1.36-0.3,2.75-0.45,4.15-0.43c1.89-0.05,3.78,0.2,5.6,0.74c1.35,0.41,2.61,1.09,3.7,1.98c0.93,0.78,1.68,1.75,2.19,2.85
			c0.49,1.07,0.85,2.19,1.07,3.35c0.22,1.14,0.34,2.29,0.37,3.45c0.03,1.14,0.04,2.21,0.04,3.2v16.48c-0.05,0.9,0.15,1.8,0.56,2.6
			c0.31,0.57,0.75,1.06,1.28,1.45c0.43,0.31,0.91,0.54,1.42,0.68C20.31,31.89,20.65,31.97,21,32.02z"/>
		<path id="Trazado_47_5_" class="st1" d="M-33.35-16.79c-0.32-0.78-0.79-1.49-1.38-2.09c-0.6-0.6-1.32-1.08-2.11-1.4
			c-0.86-0.35-1.78-0.53-2.7-0.52c-1.84-0.01-3.61,0.71-4.94,1.98c-0.62,0.61-1.12,1.33-1.47,2.13c-0.36,0.81-0.54,1.69-0.54,2.58
			c-0.01,0.88,0.16,1.75,0.5,2.56c0.31,0.78,0.79,1.48,1.38,2.07c1.28,1.24,3,1.92,4.78,1.9c0.94,0.01,1.88-0.17,2.75-0.54
			c0.81-0.34,1.56-0.82,2.21-1.42c1.29-1.21,2.03-2.91,2.02-4.69C-32.85-15.11-33.02-15.98-33.35-16.79z"/>
		<g id="Grupo_5_4_" transform="translate(2.025 80.368)">
			<g id="Grupo_4_4_">
				<path id="Trazado_48_4_" class="st0" d="M-84.01-33.45c0.64-1.22,1.91-1.98,3.29-1.96c0.54,0,1.06,0.12,1.55,0.34
					c0.47,0.2,0.89,0.51,1.21,0.91v-3.87h1.67v10.76h-1.67v-1.21c-0.29,0.41-0.68,0.74-1.13,0.96c-0.51,0.26-1.08,0.39-1.65,0.38
					c-0.67,0.01-1.34-0.18-1.91-0.53c-0.58-0.36-1.06-0.87-1.37-1.48c-0.34-0.67-0.51-1.41-0.5-2.16
					C-84.52-32.05-84.35-32.79-84.01-33.45z M-78.29-32.72c-0.21-0.39-0.52-0.71-0.89-0.93c-0.36-0.21-0.77-0.32-1.19-0.32
					c-0.42,0-0.83,0.1-1.19,0.31c-0.38,0.22-0.69,0.53-0.9,0.92c-0.24,0.44-0.36,0.93-0.34,1.43c-0.01,0.51,0.11,1.01,0.34,1.45
					c0.21,0.4,0.52,0.73,0.9,0.95c0.36,0.21,0.77,0.33,1.19,0.33c0.42,0,0.83-0.11,1.19-0.32c0.38-0.22,0.69-0.55,0.89-0.94
					c0.24-0.45,0.35-0.94,0.34-1.45C-77.94-31.78-78.06-32.28-78.29-32.72L-78.29-32.72z"/>
				<path id="Trazado_49_4_" class="st0" d="M-74.01-36.65c-0.42-0.41-0.42-1.08-0.01-1.5c0.2-0.21,0.48-0.32,0.77-0.32
					c0.28-0.01,0.55,0.11,0.74,0.31c0.41,0.42,0.41,1.09,0,1.51c-0.19,0.2-0.46,0.31-0.74,0.3C-73.54-36.33-73.81-36.44-74.01-36.65
					z M-72.44-35.28v8.01h-1.66v-8.01H-72.44z"/>
				<path id="Trazado_50_4_" class="st0" d="M-69.04-27.48c-0.47-0.2-0.88-0.52-1.19-0.93c-0.29-0.38-0.45-0.84-0.47-1.32h1.72
					c0.03,0.34,0.21,0.65,0.49,0.85c0.32,0.24,0.71,0.36,1.11,0.34c0.38,0.02,0.76-0.07,1.09-0.27c0.24-0.15,0.39-0.41,0.39-0.69
					c0.01-0.29-0.16-0.55-0.43-0.67c-0.44-0.2-0.89-0.36-1.36-0.48c-0.5-0.13-0.99-0.29-1.47-0.48c-0.38-0.16-0.72-0.4-0.98-0.71
					c-0.29-0.36-0.44-0.81-0.41-1.27c0-0.42,0.13-0.83,0.38-1.17c0.28-0.37,0.65-0.66,1.09-0.84c0.51-0.21,1.07-0.32,1.62-0.31
					c0.79-0.04,1.57,0.21,2.2,0.69c0.56,0.47,0.89,1.15,0.89,1.88h-1.66c-0.02-0.34-0.18-0.65-0.44-0.86
					c-0.31-0.23-0.68-0.34-1.06-0.32c-0.35-0.02-0.7,0.06-1,0.25c-0.22,0.14-0.35,0.39-0.35,0.65c0,0.2,0.08,0.4,0.23,0.54
					c0.16,0.15,0.36,0.27,0.57,0.34c0.22,0.08,0.55,0.19,0.99,0.31c0.49,0.12,0.97,0.28,1.43,0.47c0.37,0.16,0.7,0.4,0.97,0.71
					c0.28,0.35,0.43,0.79,0.42,1.24c0.01,0.44-0.13,0.86-0.38,1.22c-0.27,0.37-0.64,0.67-1.07,0.84c-0.51,0.21-1.07,0.32-1.62,0.31
					C-67.93-27.13-68.51-27.24-69.04-27.48z"/>
				<path id="Trazado_51_4_" class="st0" d="M-55.2-30.65h-6.13c0.02,0.59,0.28,1.14,0.71,1.54c0.43,0.39,0.99,0.6,1.57,0.58
					c0.8,0.05,1.55-0.39,1.89-1.12h1.79c-0.24,0.73-0.7,1.36-1.32,1.81c-0.69,0.49-1.52,0.74-2.36,0.71
					c-0.72,0.01-1.43-0.17-2.06-0.52c-0.6-0.34-1.1-0.85-1.43-1.45c-0.35-0.67-0.53-1.42-0.52-2.17c-0.02-0.75,0.16-1.5,0.5-2.17
					c0.32-0.61,0.81-1.11,1.41-1.45c0.64-0.35,1.36-0.52,2.09-0.51c0.71-0.01,1.4,0.16,2.02,0.49c0.58,0.32,1.06,0.8,1.38,1.39
					c0.34,0.63,0.51,1.34,0.49,2.06C-55.15-31.19-55.16-30.92-55.2-30.65z M-56.87-31.99c0.01-0.56-0.23-1.1-0.65-1.47
					c-0.44-0.37-1.01-0.57-1.59-0.55c-0.54-0.01-1.07,0.18-1.47,0.54c-0.42,0.38-0.68,0.91-0.73,1.47L-56.87-31.99z"/>
				<path id="Trazado_52_4_" class="st0" d="M-47.78-35.02c0.5,0.26,0.91,0.67,1.17,1.16c0.3,0.57,0.44,1.22,0.42,1.86v4.73h-1.64
					v-4.48c0.04-0.6-0.15-1.19-0.54-1.65c-0.38-0.39-0.92-0.6-1.47-0.57c-0.55-0.03-1.09,0.18-1.47,0.57
					c-0.39,0.46-0.58,1.05-0.54,1.65v4.48h-1.66v-8.01h1.66v0.92c0.28-0.34,0.64-0.6,1.04-0.77c0.42-0.18,0.88-0.28,1.35-0.28
					C-48.88-35.42-48.3-35.28-47.78-35.02z M-51.55-37.38c0.29-0.29,0.68-0.44,1.09-0.43c0.16,0,0.33,0.03,0.48,0.09
					c0.17,0.08,0.34,0.16,0.49,0.26c0.12,0.08,0.24,0.15,0.37,0.22c0.11,0.05,0.22,0.07,0.34,0.07c0.15,0,0.3-0.05,0.41-0.16
					c0.12-0.12,0.2-0.29,0.21-0.46h0.93c-0.04,0.47-0.23,0.92-0.55,1.27c-0.29,0.29-0.68,0.44-1.09,0.43
					c-0.17,0-0.34-0.03-0.49-0.09c-0.17-0.08-0.33-0.17-0.48-0.27c-0.17-0.11-0.31-0.18-0.4-0.23c-0.1-0.04-0.2-0.07-0.31-0.07
					c-0.15,0-0.3,0.05-0.41,0.16c-0.12,0.13-0.2,0.29-0.21,0.47h-0.93C-52.06-36.58-51.87-37.03-51.55-37.38z"/>
				<path id="Trazado_53_4_" class="st0" d="M-42.65-27.65c-0.61-0.34-1.11-0.84-1.44-1.45c-0.36-0.67-0.54-1.41-0.52-2.17
					c-0.01-0.76,0.17-1.5,0.54-2.17c0.34-0.61,0.85-1.12,1.47-1.45c1.3-0.68,2.86-0.68,4.16,0c0.62,0.34,1.13,0.84,1.47,1.45
					c0.37,0.66,0.55,1.41,0.54,2.17c0.01,0.76-0.18,1.51-0.55,2.17c-0.36,0.62-0.88,1.12-1.51,1.46c-0.65,0.35-1.37,0.52-2.1,0.52
					C-41.32-27.12-42.02-27.3-42.65-27.65z M-39.4-28.88c0.38-0.21,0.7-0.53,0.91-0.92c0.24-0.46,0.36-0.97,0.35-1.48
					c0.02-0.51-0.1-1.02-0.34-1.47c-0.2-0.38-0.51-0.7-0.89-0.91c-0.36-0.2-0.78-0.31-1.19-0.3c-0.42,0-0.82,0.1-1.19,0.3
					c-0.37,0.21-0.67,0.53-0.87,0.91c-0.23,0.46-0.34,0.96-0.32,1.47c-0.05,0.73,0.19,1.44,0.66,2c0.43,0.46,1.03,0.72,1.67,0.71
					C-40.18-28.57-39.77-28.68-39.4-28.88L-39.4-28.88z"/>
				<path id="Trazado_54_4_" class="st0" d="M-26.14-35.04c0.44,0.22,0.83,0.53,1.13,0.92v-1.16h1.67v8.14
					c0.01,0.69-0.15,1.36-0.47,1.97c-0.31,0.57-0.77,1.05-1.35,1.36c-0.65,0.34-1.37,0.51-2.1,0.49c-0.96,0.04-1.91-0.23-2.7-0.76
					c-0.7-0.47-1.15-1.23-1.22-2.07h1.64c0.13,0.43,0.42,0.78,0.81,1.01c0.44,0.27,0.96,0.4,1.47,0.39c0.6,0.03,1.19-0.19,1.62-0.61
					c0.44-0.48,0.67-1.12,0.62-1.77v-1.34c-0.66,0.86-1.69,1.35-2.78,1.34c-0.67,0.01-1.34-0.18-1.91-0.53
					c-0.58-0.36-1.06-0.87-1.37-1.48c-0.34-0.67-0.51-1.41-0.5-2.16c-0.01-0.74,0.16-1.48,0.5-2.14c0.64-1.22,1.9-1.98,3.28-1.96
					C-27.21-35.42-26.65-35.3-26.14-35.04z M-25.35-32.72c-0.21-0.39-0.52-0.71-0.89-0.93c-0.36-0.21-0.77-0.32-1.19-0.32
					c-0.42,0-0.83,0.1-1.19,0.31c-0.38,0.22-0.69,0.53-0.89,0.92c-0.24,0.44-0.36,0.93-0.34,1.43c-0.01,0.51,0.11,1.01,0.34,1.45
					c0.21,0.4,0.52,0.73,0.9,0.95c0.36,0.21,0.77,0.33,1.19,0.33c0.42,0,0.83-0.11,1.19-0.32c0.38-0.22,0.69-0.55,0.89-0.94
					c0.24-0.45,0.35-0.94,0.34-1.45C-25-31.78-25.11-32.28-25.35-32.72z"/>
				<path id="Trazado_55_4_" class="st0" d="M-18.53-35.07c0.44-0.24,0.93-0.35,1.43-0.34v1.72h-0.42
					c-0.54-0.04-1.07,0.14-1.47,0.49c-0.39,0.48-0.57,1.1-0.5,1.72v4.22h-1.66v-8.01h1.66v1.16
					C-19.26-34.51-18.93-34.84-18.53-35.07z"/>
				<path id="Trazado_56_4_" class="st0" d="M-15.62-33.45c0.64-1.22,1.9-1.98,3.28-1.96c0.57-0.01,1.14,0.11,1.65,0.37
					c0.44,0.22,0.82,0.54,1.13,0.92v-1.16h1.67v8.01h-1.67v-1.19c-0.31,0.4-0.7,0.72-1.15,0.95c-1.13,0.55-2.47,0.49-3.55-0.16
					c-0.58-0.36-1.05-0.87-1.36-1.48c-0.34-0.67-0.51-1.41-0.5-2.16C-16.14-32.05-15.96-32.79-15.62-33.45z M-9.9-32.72
					c-0.21-0.39-0.52-0.71-0.89-0.93c-0.36-0.21-0.77-0.32-1.19-0.32c-0.42,0-0.83,0.1-1.19,0.31c-0.38,0.22-0.69,0.53-0.89,0.92
					c-0.24,0.44-0.36,0.93-0.34,1.43c-0.01,0.51,0.11,1.01,0.34,1.45c0.21,0.4,0.52,0.73,0.9,0.95c0.36,0.22,0.77,0.33,1.19,0.33
					c0.42,0,0.83-0.11,1.19-0.32c0.38-0.22,0.69-0.55,0.89-0.94c0.24-0.45,0.35-0.94,0.34-1.45C-9.55-31.78-9.67-32.28-9.9-32.72z
					 M-10.23-37.43l-3.21,1.59v-1.22l3.21-1.77V-37.43z"/>
				<path id="Trazado_57_4_" class="st0" d="M-2.35-33.93h-1.48v6.66H-5.5v-6.66h-0.95v-1.35h0.95v-0.57
					c-0.07-0.75,0.2-1.49,0.73-2.02c0.67-0.48,1.49-0.7,2.31-0.63v1.38c-0.38-0.04-0.75,0.06-1.06,0.28
					c-0.23,0.27-0.34,0.63-0.31,0.98v0.57h1.48V-33.93z"/>
				<path id="Trazado_58_4_" class="st0" d="M-0.79-36.65c-0.42-0.41-0.42-1.08-0.01-1.5c0.2-0.21,0.48-0.32,0.77-0.32
					c0.28-0.01,0.55,0.11,0.74,0.31c0.41,0.42,0.41,1.09,0,1.51c-0.19,0.2-0.46,0.31-0.74,0.3C-0.32-36.33-0.59-36.44-0.79-36.65z
					 M0.78-35.28v8.01h-1.66v-8.01H0.78z"/>
				<path id="Trazado_59_4_" class="st0" d="M2.91-33.45c0.31-0.61,0.8-1.11,1.39-1.45c1.41-0.74,3.1-0.67,4.44,0.18
					c0.65,0.48,1.11,1.18,1.29,1.97H8.24c-0.13-0.38-0.37-0.7-0.7-0.93c-0.36-0.23-0.78-0.35-1.21-0.34
					c-0.62-0.02-1.22,0.24-1.62,0.72c-0.8,1.22-0.8,2.81,0,4.03c0.4,0.48,1,0.75,1.62,0.73c0.85,0.07,1.64-0.45,1.91-1.27h1.79
					c-0.21,0.77-0.67,1.46-1.31,1.94c-0.69,0.5-1.53,0.75-2.39,0.72c-0.71,0.01-1.42-0.16-2.04-0.52C3.71-28,3.23-28.51,2.91-29.11
					C2.24-30.48,2.24-32.09,2.91-33.45L2.91-33.45z"/>
				<path id="Trazado_60_4_" class="st0" d="M13.11-27.65c-0.61-0.34-1.11-0.84-1.44-1.45c-0.36-0.67-0.54-1.41-0.52-2.17
					c-0.01-0.76,0.17-1.5,0.54-2.17c0.34-0.61,0.85-1.12,1.47-1.45c1.3-0.68,2.86-0.68,4.16,0c0.62,0.34,1.13,0.84,1.47,1.45
					c0.37,0.66,0.55,1.41,0.54,2.17c0.01,0.76-0.18,1.51-0.55,2.17c-0.36,0.62-0.88,1.12-1.51,1.46c-0.65,0.35-1.37,0.52-2.1,0.52
					C14.45-27.12,13.74-27.3,13.11-27.65z M16.36-28.88c0.38-0.21,0.7-0.53,0.91-0.92c0.24-0.46,0.36-0.97,0.35-1.48
					c0.02-0.51-0.1-1.02-0.33-1.47c-0.2-0.38-0.51-0.7-0.89-0.91c-0.36-0.2-0.78-0.31-1.19-0.3c-0.42,0-0.82,0.1-1.19,0.3
					c-0.37,0.21-0.67,0.53-0.87,0.91c-0.23,0.46-0.34,0.96-0.32,1.47c-0.05,0.73,0.19,1.44,0.66,2c0.43,0.46,1.03,0.72,1.66,0.71
					C15.58-28.57,16-28.68,16.36-28.88L16.36-28.88z"/>
			</g>
		</g>
	</g>
</g>
</svg>
