<?xml version="1.0" encoding="utf-8"?>
<!-- Generator: Adobe Illustrator 24.1.2, SVG Export Plug-In . SVG Version: 6.00 Build 0)  -->
<svg version="1.1" id="Layer_1" xmlns="http://www.w3.org/2000/svg" xmlns:xlink="http://www.w3.org/1999/xlink" x="0px" y="0px"
	 viewBox="0 0 89.9 66.25" style="enable-background:new 0 0 89.9 66.25;" xml:space="preserve">
<style type="text/css">
	.st0{fill:#033D36;}
	.st1{fill:#60C5BA;}
</style>
<g id="Grupo_7_1_" transform="translate(-770.2 -824.2)">
	<g id="Grupo_6_1_" transform="translate(855 846)">
		<path id="Trazado_45_1_" class="st0" d="M-83.95,5.54c-0.21,0.01-0.43-0.04-0.61-0.14c-0.16-0.11-0.25-0.3-0.23-0.49
			c0.02-0.7,0.1-1.39,0.25-2.07c0.19-0.95,0.48-1.88,0.86-2.78c0.44-1.04,0.98-2.03,1.62-2.97c0.7-1.03,1.55-1.94,2.53-2.71
			c1.09-0.85,2.31-1.51,3.62-1.97c1.55-0.53,3.19-0.79,4.83-0.76c4.02,0.02,7.88,1.6,10.76,4.41c1.54,1.53,2.76,3.35,3.58,5.36
			c0.95,2.33,1.42,4.83,1.37,7.34c0.03,2.32-0.34,4.63-1.11,6.82c-0.67,1.91-1.74,3.66-3.13,5.13c-1.37,1.42-3.03,2.52-4.87,3.22
			c-2.03,0.76-4.19,1.14-6.36,1.11c-1.41,0.02-2.82-0.14-4.2-0.47c-1.15-0.28-2.27-0.69-3.34-1.21c-0.9-0.44-1.74-0.98-2.51-1.62
			c-0.63-0.51-1.22-1.08-1.76-1.69c-0.4-0.44-0.76-0.92-1.07-1.42c-0.25-0.41-0.4-0.68-0.47-0.83c-0.19-0.4-0.19-0.7,0-0.9
			c0.21-0.2,0.53-0.24,0.77-0.09c0.34,0.17,0.67,0.37,0.98,0.59c0.55,0.36,1.12,0.69,1.72,0.97c0.8,0.37,1.63,0.67,2.48,0.9
			c1.06,0.27,2.15,0.4,3.25,0.39c1.44,0.03,2.87-0.23,4.2-0.77c1.21-0.51,2.25-1.35,3.02-2.41c0.89-1.26,1.52-2.69,1.85-4.2
			c0.45-2.02,0.67-4.08,0.63-6.15c0-0.4-0.19-0.6-0.56-0.6L-83.95,5.54z M-65.63,1.86c-0.08-0.6-0.21-1.25-0.37-1.97
			c-0.17-0.74-0.38-1.48-0.63-2.2c-0.24-0.72-0.57-1.41-0.97-2.06c-0.36-0.59-0.83-1.1-1.39-1.51c-0.55-0.39-1.22-0.59-1.9-0.58
			c-0.85-0.02-1.68,0.27-2.32,0.83c-0.65,0.57-1.18,1.25-1.56,2.02c-0.41,0.8-0.71,1.65-0.9,2.53c-0.17,0.77-0.27,1.56-0.28,2.35
			c-0.06,0.6,0.17,1.19,0.61,1.58c0.34,0.28,0.75,0.45,1.18,0.49c0.27,0.03,0.55,0.05,0.83,0.05c0.43,0.01,0.95,0.03,1.55,0.05
			c0.6,0.02,1.22,0.05,1.88,0.07c0.66,0.02,1.27,0.05,1.85,0.07c0.58,0.02,1.06,0.04,1.46,0.05c0.4,0.01,0.63,0.02,0.7,0.02
			c0.33,0,0.47-0.15,0.42-0.46C-65.49,2.92-65.55,2.46-65.63,1.86z"/>
		<path id="Trazado_46_1_" class="st0" d="M4.6,23.15c0.16,0.03,0.3,0.11,0.4,0.23c0.08,0.09,0.11,0.22,0.09,0.33
			c-0.03,0.12-0.09,0.24-0.19,0.32c-0.12,0.1-0.28,0.15-0.44,0.14h-16.51c-0.16,0.01-0.32-0.04-0.44-0.14
			c-0.1-0.08-0.17-0.19-0.19-0.32c-0.02-0.12,0.01-0.24,0.09-0.33c0.11-0.12,0.25-0.2,0.4-0.23c0.3-0.05,0.59-0.11,0.88-0.19
			c0.43-0.12,0.84-0.32,1.21-0.58c0.45-0.32,0.82-0.74,1.09-1.23c0.35-0.68,0.51-1.45,0.47-2.21V2.66
			c-0.02-0.95-0.11-1.89-0.25-2.83c-0.12-0.89-0.4-1.76-0.81-2.56c-0.39-0.75-0.96-1.39-1.67-1.86c-0.86-0.52-1.86-0.77-2.86-0.72
			c-0.87-0.04-1.73,0.15-2.51,0.53c-0.61,0.32-1.12,0.78-1.49,1.35c-0.36,0.57-0.61,1.19-0.74,1.85c-0.14,0.67-0.22,1.35-0.25,2.04
			v18.48c-0.04,0.77,0.12,1.53,0.47,2.21c0.27,0.49,0.64,0.91,1.09,1.23c0.37,0.26,0.78,0.46,1.21,0.58
			c0.29,0.08,0.58,0.15,0.88,0.19c0.16,0.03,0.3,0.11,0.4,0.23c0.08,0.09,0.11,0.21,0.09,0.33c-0.03,0.12-0.1,0.24-0.19,0.32
			c-0.12,0.1-0.28,0.15-0.44,0.14h-16.51c-0.16,0.01-0.32-0.04-0.44-0.14c-0.1-0.08-0.17-0.19-0.19-0.32
			c-0.02-0.12,0.01-0.24,0.09-0.33c0.11-0.12,0.25-0.2,0.4-0.23c0.3-0.05,0.59-0.11,0.88-0.19c0.43-0.12,0.84-0.32,1.21-0.58
			c0.45-0.32,0.82-0.74,1.09-1.23c0.35-0.68,0.51-1.45,0.47-2.21V2.62c-0.02-0.94-0.11-1.88-0.25-2.81
			c-0.13-0.89-0.4-1.75-0.81-2.55c-0.39-0.76-0.97-1.4-1.69-1.86c-0.86-0.51-1.85-0.77-2.85-0.72c-0.87-0.04-1.74,0.14-2.53,0.53
			c-0.6,0.32-1.11,0.79-1.49,1.35c-0.37,0.56-0.62,1.2-0.74,1.86c-0.13,0.68-0.2,1.37-0.23,2.06v18.45
			c-0.04,0.77,0.12,1.53,0.47,2.21c0.27,0.49,0.64,0.91,1.09,1.23c0.37,0.26,0.78,0.46,1.21,0.58c0.29,0.08,0.58,0.15,0.88,0.19
			c0.16,0.03,0.3,0.11,0.4,0.23c0.08,0.09,0.11,0.22,0.09,0.33c-0.03,0.12-0.1,0.24-0.19,0.32c-0.12,0.1-0.28,0.15-0.44,0.14h-16.52
			c-0.16,0.01-0.32-0.04-0.44-0.14c-0.1-0.08-0.17-0.19-0.19-0.32c-0.02-0.12,0.01-0.24,0.09-0.33c0.11-0.12,0.25-0.2,0.4-0.23
			c0.3-0.05,0.59-0.11,0.88-0.19c0.43-0.12,0.84-0.32,1.21-0.58c0.45-0.32,0.82-0.74,1.09-1.23c0.35-0.68,0.51-1.45,0.47-2.21V-0.89
			c0.03-0.27-0.16-0.51-0.42-0.56c-0.17-0.02-0.34-0.06-0.51-0.11c-0.29-0.07-0.63-0.15-1-0.25c-0.37-0.09-0.72-0.18-1.04-0.25
			c-0.32-0.07-0.51-0.12-0.58-0.14c-0.31-0.07-0.46-0.23-0.47-0.47c-0.01-0.25,0.16-0.42,0.51-0.51c1-0.24,1.99-0.52,2.97-0.86
			c1.07-0.36,2.14-0.77,3.22-1.23c1.08-0.46,2.12-0.95,3.13-1.48c0.93-0.48,1.83-1.02,2.71-1.6c0.19-0.13,0.42-0.2,0.65-0.18
			c0.22,0.02,0.33,0.2,0.33,0.53v2.6c1.15-0.87,2.42-1.58,3.78-2.09c1.68-0.61,3.46-0.9,5.25-0.86c1.19-0.01,2.38,0.09,3.55,0.32
			c0.93,0.18,1.84,0.48,2.69,0.9c0.72,0.35,1.37,0.81,1.95,1.37c0.53,0.51,0.98,1.1,1.33,1.74c0.55-0.57,1.15-1.1,1.79-1.58
			c0.72-0.54,1.5-1.01,2.32-1.39c0.93-0.43,1.9-0.76,2.9-0.98c1.16-0.26,2.34-0.38,3.53-0.37c1.61-0.04,3.22,0.17,4.76,0.63
			c1.15,0.35,2.22,0.92,3.15,1.69c0.79,0.66,1.43,1.49,1.86,2.42C0.1-2.69,0.4-1.73,0.59-0.75C0.78,0.22,0.88,1.2,0.91,2.19
			c0.02,0.97,0.04,1.88,0.04,2.72v14.02c-0.04,0.77,0.12,1.53,0.47,2.21c0.27,0.49,0.64,0.91,1.09,1.23
			c0.37,0.26,0.78,0.46,1.21,0.58C4.01,23.04,4.3,23.1,4.6,23.15z"/>
		<path id="Trazado_47_1_" class="st1" d="M-41.66-18.39c-0.27-0.66-0.67-1.27-1.18-1.77c-0.51-0.51-1.12-0.92-1.79-1.19
			c-0.73-0.3-1.51-0.45-2.3-0.44c-1.57,0-3.07,0.6-4.2,1.69c-0.53,0.52-0.95,1.13-1.25,1.81c-0.3,0.69-0.46,1.44-0.46,2.2
			c-0.01,0.75,0.14,1.49,0.42,2.18c0.27,0.66,0.67,1.26,1.18,1.76c1.09,1.05,2.55,1.63,4.06,1.61c0.8,0.01,1.6-0.15,2.34-0.46
			c0.69-0.29,1.33-0.7,1.88-1.21c1.1-1.03,1.72-2.48,1.72-3.99C-41.23-16.96-41.37-17.7-41.66-18.39z"/>
		<g id="Grupo_5_1_" transform="translate(2.025 80.368)">
			<g id="Grupo_4_1_">
				<path id="Trazado_48_1_" class="st0" d="M-85.06-44.54c0.54-1.04,1.63-1.69,2.8-1.67c0.46,0,0.91,0.1,1.32,0.29
					c0.4,0.17,0.76,0.44,1.03,0.77v-3.29h1.42v9.16h-1.42v-1.03c-0.25,0.35-0.58,0.63-0.96,0.82c-0.43,0.22-0.92,0.33-1.4,0.32
					c-0.57,0.01-1.14-0.15-1.63-0.45c-0.5-0.31-0.9-0.74-1.16-1.26c-0.29-0.57-0.44-1.2-0.43-1.84
					C-85.5-43.36-85.35-43.98-85.06-44.54z M-80.2-43.93c-0.18-0.33-0.44-0.6-0.76-0.79c-0.31-0.18-0.66-0.27-1.01-0.27
					c-0.36,0-0.71,0.09-1.01,0.26c-0.32,0.18-0.59,0.46-0.76,0.78c-0.2,0.37-0.3,0.79-0.29,1.22c-0.01,0.43,0.09,0.86,0.29,1.24
					c0.18,0.34,0.44,0.62,0.77,0.81c0.3,0.18,0.65,0.28,1.01,0.28c0.36,0,0.71-0.09,1.01-0.27c0.32-0.19,0.59-0.47,0.76-0.8
					c0.2-0.38,0.3-0.8,0.29-1.23C-79.9-43.13-79.99-43.55-80.2-43.93L-80.2-43.93z"/>
				<path id="Trazado_49_1_" class="st0" d="M-76.55-47.27c-0.36-0.35-0.36-0.92-0.01-1.28c0.17-0.18,0.41-0.27,0.65-0.27
					c0.24,0,0.47,0.09,0.63,0.26c0.35,0.36,0.35,0.93,0,1.29c-0.17,0.17-0.39,0.26-0.63,0.26C-76.15-47-76.38-47.1-76.55-47.27z
					 M-75.21-46.1v6.82h-1.41v-6.82H-75.21z"/>
				<path id="Trazado_50_1_" class="st0" d="M-72.32-39.46c-0.4-0.17-0.75-0.45-1.01-0.79c-0.24-0.32-0.38-0.72-0.4-1.12h1.46
					c0.02,0.29,0.18,0.56,0.41,0.73c0.27,0.2,0.61,0.3,0.95,0.29c0.32,0.02,0.65-0.06,0.92-0.23c0.2-0.13,0.33-0.35,0.33-0.59
					c0.01-0.25-0.14-0.47-0.36-0.57c-0.37-0.17-0.76-0.31-1.16-0.41c-0.42-0.11-0.84-0.25-1.25-0.41c-0.32-0.13-0.61-0.34-0.84-0.61
					c-0.25-0.3-0.37-0.69-0.35-1.08c0-0.36,0.11-0.71,0.32-1c0.24-0.32,0.56-0.56,0.92-0.71c0.44-0.18,0.91-0.27,1.38-0.26
					c0.67-0.03,1.34,0.18,1.87,0.59c0.48,0.4,0.75,0.98,0.76,1.6h-1.41c-0.01-0.29-0.15-0.55-0.37-0.73
					c-0.26-0.19-0.58-0.29-0.9-0.27c-0.3-0.02-0.6,0.05-0.85,0.21c-0.19,0.12-0.3,0.33-0.3,0.56c0,0.17,0.07,0.34,0.2,0.46
					c0.14,0.13,0.3,0.23,0.48,0.29c0.19,0.07,0.47,0.16,0.84,0.26c0.42,0.11,0.82,0.24,1.22,0.4c0.32,0.14,0.6,0.34,0.82,0.6
					c0.24,0.3,0.37,0.67,0.36,1.05c0.01,0.37-0.11,0.74-0.32,1.04c-0.23,0.32-0.55,0.57-0.91,0.72c-0.44,0.18-0.91,0.27-1.38,0.26
					C-71.37-39.17-71.87-39.26-72.32-39.46z"/>
				<path id="Trazado_51_1_" class="st0" d="M-60.55-42.17h-5.21c0.02,0.5,0.24,0.97,0.61,1.31c0.37,0.33,0.84,0.51,1.34,0.49
					c0.68,0.05,1.32-0.33,1.61-0.95h1.52c-0.2,0.62-0.59,1.16-1.12,1.54c-0.59,0.41-1.29,0.63-2.01,0.6
					c-0.61,0.01-1.22-0.14-1.75-0.44c-0.51-0.29-0.93-0.72-1.21-1.24c-0.3-0.57-0.45-1.2-0.44-1.85c-0.01-0.64,0.13-1.28,0.43-1.85
					c0.27-0.52,0.69-0.95,1.2-1.23c0.54-0.3,1.16-0.45,1.78-0.43c0.6-0.01,1.19,0.13,1.72,0.42c0.5,0.27,0.9,0.68,1.18,1.18
					c0.29,0.54,0.43,1.14,0.42,1.75C-60.5-42.63-60.51-42.4-60.55-42.17z M-61.97-43.31c0.01-0.48-0.19-0.94-0.56-1.25
					c-0.38-0.32-0.86-0.49-1.35-0.47c-0.46-0.01-0.91,0.15-1.25,0.46c-0.35,0.33-0.58,0.77-0.62,1.25L-61.97-43.31z"/>
				<path id="Trazado_52_1_" class="st0" d="M-54.23-45.88c0.42,0.22,0.77,0.57,1,0.99c0.25,0.49,0.38,1.03,0.36,1.58v4.03h-1.4
					v-3.81c0.03-0.51-0.13-1.01-0.46-1.4c-0.33-0.33-0.78-0.51-1.25-0.49c-0.47-0.02-0.92,0.15-1.25,0.49
					c-0.33,0.39-0.5,0.89-0.46,1.4v3.81h-1.41v-6.82h1.41v0.78c0.24-0.29,0.54-0.51,0.88-0.66c0.36-0.16,0.75-0.24,1.14-0.24
					C-55.17-46.22-54.67-46.11-54.23-45.88z M-57.44-47.89c0.25-0.24,0.58-0.37,0.93-0.36c0.14,0,0.28,0.02,0.41,0.07
					c0.14,0.06,0.29,0.14,0.42,0.22c0.1,0.07,0.21,0.13,0.32,0.19c0.09,0.04,0.19,0.06,0.29,0.06c0.13,0,0.26-0.04,0.35-0.13
					c0.1-0.1,0.17-0.24,0.18-0.39h0.79c-0.03,0.4-0.2,0.78-0.47,1.08c-0.25,0.24-0.58,0.38-0.93,0.37c-0.14,0-0.29-0.02-0.42-0.08
					c-0.14-0.06-0.28-0.14-0.41-0.23c-0.15-0.09-0.26-0.15-0.34-0.19c-0.08-0.04-0.17-0.06-0.26-0.06c-0.13,0-0.26,0.05-0.35,0.14
					c-0.1,0.11-0.17,0.25-0.18,0.4h-0.79C-57.88-47.21-57.71-47.59-57.44-47.89z"/>
				<path id="Trazado_53_1_" class="st0" d="M-49.87-39.61c-0.52-0.29-0.94-0.72-1.23-1.24c-0.31-0.57-0.46-1.2-0.45-1.85
					c-0.01-0.64,0.15-1.28,0.46-1.84c0.29-0.52,0.72-0.95,1.25-1.24c1.11-0.58,2.43-0.58,3.54,0c0.53,0.29,0.96,0.72,1.25,1.24
					c0.31,0.56,0.47,1.2,0.46,1.84c0.01,0.65-0.15,1.28-0.47,1.84c-0.3,0.53-0.75,0.96-1.28,1.24c-0.55,0.3-1.16,0.45-1.79,0.44
					C-48.73-39.16-49.33-39.32-49.87-39.61z M-47.1-40.66c0.33-0.18,0.59-0.45,0.77-0.78c0.21-0.39,0.31-0.82,0.3-1.26
					c0.01-0.44-0.08-0.87-0.29-1.25c-0.17-0.32-0.43-0.59-0.75-0.77c-0.31-0.17-0.66-0.26-1.01-0.26c-0.35,0-0.7,0.09-1.01,0.26
					c-0.32,0.18-0.57,0.45-0.74,0.77c-0.19,0.39-0.29,0.82-0.27,1.25c-0.04,0.62,0.16,1.23,0.56,1.7c0.36,0.4,0.88,0.61,1.42,0.6
					C-47.77-40.4-47.41-40.49-47.1-40.66L-47.1-40.66z"/>
				<path id="Trazado_54_1_" class="st0" d="M-35.82-45.9c0.38,0.18,0.7,0.45,0.96,0.79v-0.99h1.42v6.93
					c0.01,0.58-0.13,1.16-0.4,1.68c-0.26,0.49-0.66,0.89-1.14,1.16c-0.55,0.29-1.17,0.44-1.79,0.42c-0.82,0.03-1.62-0.2-2.3-0.65
					c-0.59-0.4-0.97-1.05-1.04-1.76h1.4c0.11,0.36,0.36,0.67,0.69,0.86c0.38,0.23,0.81,0.34,1.25,0.33
					c0.51,0.02,1.01-0.17,1.38-0.52c0.38-0.41,0.57-0.96,0.53-1.51v-1.14c-0.56,0.73-1.44,1.15-2.36,1.14
					c-0.57,0.01-1.14-0.15-1.63-0.45c-0.5-0.31-0.9-0.74-1.16-1.26c-0.29-0.57-0.44-1.2-0.43-1.84c-0.01-0.63,0.13-1.26,0.43-1.82
					c0.54-1.04,1.62-1.68,2.79-1.67C-36.73-46.23-36.25-46.12-35.82-45.9z M-35.15-43.93c-0.18-0.33-0.44-0.6-0.76-0.79
					c-0.31-0.18-0.66-0.27-1.01-0.27c-0.36,0-0.71,0.09-1.01,0.26c-0.32,0.18-0.58,0.45-0.76,0.78c-0.2,0.37-0.3,0.79-0.29,1.22
					c-0.01,0.43,0.09,0.86,0.29,1.24c0.18,0.34,0.44,0.62,0.77,0.81c0.3,0.18,0.65,0.28,1.01,0.28c0.36,0,0.71-0.09,1.01-0.27
					c0.32-0.19,0.59-0.47,0.76-0.8c0.2-0.38,0.3-0.8,0.29-1.23C-34.85-43.13-34.95-43.55-35.15-43.93z"/>
				<path id="Trazado_55_1_" class="st0" d="M-29.34-45.93c0.37-0.2,0.79-0.3,1.22-0.29v1.46h-0.36c-0.46-0.03-0.91,0.12-1.25,0.42
					c-0.33,0.41-0.48,0.94-0.43,1.46v3.59h-1.41v-6.82h1.41v0.99C-29.97-45.45-29.68-45.73-29.34-45.93z"/>
				<path id="Trazado_56_1_" class="st0" d="M-26.87-44.54c0.54-1.04,1.62-1.68,2.79-1.67c0.49-0.01,0.97,0.1,1.4,0.32
					c0.37,0.19,0.7,0.46,0.96,0.79v-0.99h1.42v6.82h-1.42v-1.02c-0.26,0.34-0.59,0.61-0.98,0.81c-0.96,0.47-2.1,0.42-3.02-0.13
					c-0.49-0.31-0.89-0.74-1.16-1.26c-0.29-0.57-0.44-1.2-0.43-1.84C-27.31-43.36-27.16-43.98-26.87-44.54z M-22-43.93
					c-0.18-0.33-0.44-0.6-0.76-0.79c-0.31-0.18-0.66-0.27-1.01-0.27c-0.36,0-0.71,0.09-1.01,0.26c-0.32,0.18-0.58,0.45-0.76,0.78
					c-0.2,0.37-0.3,0.79-0.29,1.22c-0.01,0.43,0.09,0.86,0.29,1.24c0.18,0.34,0.44,0.62,0.77,0.81c0.31,0.18,0.66,0.28,1.01,0.28
					c0.36,0,0.71-0.09,1.01-0.27c0.32-0.19,0.59-0.47,0.76-0.8c0.2-0.38,0.3-0.8,0.29-1.23C-21.7-43.13-21.8-43.55-22-43.93z
					 M-22.28-47.94l-2.74,1.35v-1.04l2.74-1.51V-47.94z"/>
				<path id="Trazado_57_1_" class="st0" d="M-15.57-44.95h-1.26v5.67h-1.42v-5.67h-0.8v-1.15h0.8v-0.48
					c-0.06-0.64,0.17-1.27,0.62-1.72c0.57-0.4,1.26-0.6,1.96-0.54v1.18c-0.32-0.03-0.64,0.05-0.9,0.24
					c-0.2,0.23-0.29,0.53-0.26,0.84v0.48h1.26V-44.95z"/>
				<path id="Trazado_58_1_" class="st0" d="M-14.25-47.27c-0.36-0.35-0.36-0.92-0.01-1.28c0.17-0.18,0.41-0.27,0.65-0.27
					c0.24,0,0.47,0.09,0.63,0.26c0.35,0.36,0.35,0.93,0,1.29c-0.17,0.17-0.39,0.26-0.63,0.26C-13.85-47-14.08-47.1-14.25-47.27z
					 M-12.91-46.1v6.82h-1.41v-6.82H-12.91z"/>
				<path id="Trazado_59_1_" class="st0" d="M-11.1-44.55c0.27-0.52,0.68-0.94,1.18-1.23c1.2-0.63,2.64-0.57,3.78,0.16
					c0.55,0.41,0.94,1.01,1.1,1.68h-1.52c-0.11-0.32-0.32-0.6-0.59-0.79c-0.3-0.2-0.66-0.3-1.03-0.29
					c-0.53-0.02-1.04,0.21-1.38,0.61c-0.68,1.04-0.68,2.39,0,3.43c0.34,0.41,0.85,0.64,1.38,0.62c0.73,0.06,1.4-0.38,1.62-1.08h1.52
					c-0.18,0.66-0.57,1.24-1.11,1.65c-0.59,0.42-1.3,0.64-2.03,0.61c-0.61,0.01-1.2-0.14-1.73-0.44c-0.5-0.29-0.91-0.72-1.18-1.24
					C-11.67-42.02-11.67-43.39-11.1-44.55L-11.1-44.55z"/>
				<path id="Trazado_60_1_" class="st0" d="M-2.42-39.61c-0.52-0.29-0.94-0.72-1.23-1.24c-0.31-0.57-0.46-1.2-0.45-1.85
					c-0.01-0.64,0.15-1.28,0.46-1.84c0.29-0.52,0.72-0.95,1.25-1.24c1.11-0.58,2.43-0.58,3.54,0c0.53,0.29,0.96,0.72,1.25,1.24
					c0.31,0.56,0.47,1.2,0.46,1.84c0.01,0.65-0.15,1.28-0.47,1.84c-0.3,0.53-0.75,0.96-1.28,1.24c-0.55,0.3-1.17,0.45-1.79,0.44
					C-1.28-39.16-1.89-39.32-2.42-39.61z M0.35-40.66c0.33-0.18,0.6-0.45,0.78-0.78c0.21-0.39,0.31-0.82,0.3-1.26
					c0.01-0.44-0.08-0.87-0.28-1.25c-0.17-0.32-0.43-0.59-0.76-0.77c-0.31-0.17-0.66-0.26-1.01-0.26c-0.35,0-0.7,0.09-1.01,0.26
					c-0.32,0.18-0.57,0.45-0.74,0.77c-0.19,0.39-0.29,0.82-0.27,1.25c-0.04,0.62,0.16,1.23,0.56,1.7c0.36,0.4,0.88,0.61,1.42,0.6
					C-0.32-40.4,0.03-40.49,0.35-40.66L0.35-40.66z"/>
			</g>
		</g>
	</g>
</g>
</svg>
